<svg xmlns="http://www.w3.org/2000/svg" viewBox="0 0 461 511.42"><defs><style>.cls-1{opacity:0.74;}.cls-2{fill:#bc001a;}.cls-3{fill:#daae23;}.cls-4{fill:#5b1221;}.cls-5{fill:#e1001f;}.cls-6{fill:#f4c327;}.cls-7{fill:#9d0025;}.cls-8{fill:#c1b020;}.cls-9{fill:#fff;}.cls-10{fill:#cacaca;}.cls-11{fill:#c0b420;}.cls-12{fill:#a4203b;}.cls-13{fill:#f0004c;}.cls-14{fill:#fdf346;}.cls-15{fill:#f3ef3a;}.cls-16{fill:#e6af78;}.cls-17{fill:#d29b6e;}.cls-18{fill:#f0c087;}.cls-19{fill:#785550;}.cls-20{fill:#694b4b;}.cls-21{fill:#5a4146;}.cls-22{fill:#b4e1fa;}.cls-23{fill:#a0d2f0;}.cls-24{fill:#5b5d6e;}.cls-25{fill:#515262;}.cls-26{fill:#707487;}.cls-27{fill:none;stroke:#464655;stroke-miterlimit:10;stroke-width:12px;}</style></defs><title>Recurso 4</title><g id="Capa_2" data-name="Capa 2"><g id="Capa_1-2" data-name="Capa 1"><g id="spainFlag" class="cls-1"><path class="cls-2" d="M355.06,267.27c.66,2,1.3,3.89,1.91,5.72s1.19,3.58,1.76,5.27l1.64,4.93,1.56,4.68,1.51,4.53,1.5,4.48,1.51,4.53c.51,1.53,1,3.08,1.56,4.68s1.08,3.23,1.64,4.93,1.16,3.44,1.76,5.27,1.24,3.73,1.91,5.72,1.3,3.89,1.9,5.71,1.2,3.58,1.76,5.27,1.12,3.33,1.65,4.93l1.56,4.68,1.51,4.53c.5,1.5,1,3,1.49,4.48s1,3,1.52,4.53l1.56,4.69q.8,2.39,1.64,4.92l1.76,5.27c.61,1.83,1.25,3.73,1.91,5.72a7.47,7.47,0,0,0,4.23,2.08,29.86,29.86,0,0,0,6.48.53,46.52,46.52,0,0,0,4.83-.26c1.54-.14,3.14-.35,4.82-.61s3.42-.58,5.28-1,3.83-.88,5.95-1.47,3.87-1.12,6-1.85,4.09-1.48,5.92-2.24,3.54-1.53,5.14-2.31,3.11-1.59,4.55-2.41,3-1.83,4.5-2.83,2.86-2.06,4.23-3.22a42.73,42.73,0,0,0,4-3.8A32.64,32.64,0,0,0,461,352.7c-1.22-1.79-2.35-3.54-3.42-5.25s-2.08-3.38-3-5-1.85-3.24-2.72-4.83-1.69-3.14-2.5-4.69-1.58-3.1-2.35-4.66-1.52-3.12-2.27-4.71-1.5-3.24-2.26-4.93-1.51-3.42-2.28-5.22-1.55-3.66-2.34-5.59-1.59-4-2.41-6.06-1.57-4.09-2.27-6-1.34-3.65-1.94-5.34-1.38-3.93-2-5.81-1.24-3.67-1.8-5.4-1.1-3.4-1.61-5-1-3.19-1.46-4.72-.92-3-1.35-4.5-1.06-3.67-1.73-6.09-1.25-4.62-1.72-6.49-.83-3.41-1-4.4c-1.58,1.25-3.06,2.38-4.46,3.41s-2.73,2-4,2.84-2.53,1.69-3.76,2.45-2.48,1.52-3.79,2.25-2.64,1.44-4,2.13-2.87,1.37-4.44,2-3.28,1.31-5.11,1.92-3.55,1.11-5.2,1.52-3.24.73-4.78,1-3.05.45-4.55.6-2.86.22-4.28.26-2.87.05-4.41,0-3.15-.16-4.9-.34-3.62-.44-5.69-.81"/><path class="cls-3" d="M364.19,294.64c.61,1.83,1.17,3.5,1.69,5.07s1,3,1.49,4.46l1.38,4.15c.46,1.37.92,2.74,1.39,4.16s1,2.89,1.49,4.46,1.08,3.24,1.69,5.07,1.16,3.49,1.69,5.06,1,3,1.49,4.46.93,2.79,1.39,4.16.91,2.73,1.38,4.15,1,2.89,1.49,4.46,1.08,3.25,1.69,5.07a9.84,9.84,0,0,0,4.32,1.9,29.33,29.33,0,0,0,5.84.61c2.1,0,3.06,0,4.5-.08s2.91-.21,4.47-.41,3.18-.45,4.88-.77,3.5-.73,5.41-1.23,3.58-1,5.53-1.63,3.77-1.33,5.45-2,3.25-1.4,4.72-2.12,2.86-1.46,4.2-2.23,2.77-1.66,4.1-2.57,2.62-1.86,3.89-2.91a44,44,0,0,0,3.73-3.44,35.44,35.44,0,0,0,3.49-4.22c-.85-1.73-1.62-3.33-2.32-4.83s-1.36-2.94-2-4.32-1.21-2.72-1.79-4.06-1.15-2.67-1.73-4.06-1.17-2.82-1.79-4.34-1.26-3.15-1.94-4.9-1.29-3.35-1.85-4.83-1.06-2.87-1.54-4.19-.91-2.53-1.45-4.06-1.06-3-1.58-4.57-1-3.1-1.58-4.74-1.09-3.33-1.65-5.13c-1.59,1.6-3.12,3-4.6,4.28s-2.92,2.4-4.35,3.45-2.83,2-4.27,2.92-2.95,1.82-4.5,2.66-3.19,1.68-5,2.49-3.7,1.59-5.81,2.34-4,1.32-6,1.81-3.76.87-5.53,1.16-3.52.51-5.12.64-3.2.21-4.84.21a51.3,51.3,0,0,1-5.72-.3,30.49,30.49,0,0,1-5.91-1.24"/><path class="cls-4" d="M375,294.54,361.71,298l29,75.34c-.68-7.32,7.16-13,3.66-22.08,0,0-9.7-29.09-19.38-56.76"/><path class="cls-5" d="M358.37,248.08a44.32,44.32,0,0,0-4.83-3.33,24.4,24.4,0,0,0-4.72-1.56,31.35,31.35,0,0,0-6-.74,32.15,32.15,0,0,0-4.56.11c-1.34.1-2.76.27-4.29.52s-3.18.58-5,1-3.79,1-6,1.76-5.6,2.06-7.18,2.73-3.11,1.36-4.6,2.06-3,1.44-4.39,2.18-2.85,1.51-4.27,2.3-2.85,1.61-4.3,2.47-2.94,1.77-4.5,2.75-3.16,2-4.88,3.16-3.55,2.4-5.52,3.79-4.1,2.93-6.43,4.67a45.57,45.57,0,0,1,3.53,3.88c2.06,2.52,2.54,3.26,3.41,4.5s1.77,2.59,2.68,4,1.82,3,2.74,4.6,1.84,3.37,2.77,5.23,1.41,2.9,2,4.2,1.18,2.65,1.78,4.11,1.21,3,1.83,4.67,1.26,3.46,1.9,5.42,1.3,4.08,1.95,6.41,1.26,4.63,1.8,6.92.83,3.62,1.15,5.19.63,3.14.91,4.69.53,3.08.77,4.63.46,3.11.67,4.69.4,3.2.57,4.86.35,3.38.5,5.17.28,3.67.39,5.65.21,4.06.28,6.29.12,4.6.13,7.15q2.53-1.75,4.9-3.27t4.56-2.86q2.21-1.35,4.3-2.56c1.4-.81,2.78-1.58,4.15-2.33s2.73-1.48,4.11-2.2,2.74-1.4,4.27-2.15,3.09-1.49,4.71-2.24,3.29-1.47,5-2.21,3.57-1.48,5.47-2.21,3.68-1.36,5.36-1.93,3.21-1.06,5.06-1.6,3.6-1,5.26-1.41,3.25-.74,4.78-1,3-.5,4.44-.66,2.83-.27,4.2-.31a37.49,37.49,0,0,1,5.31.22,20.5,20.5,0,0,1,5.13,1.26,12.1,12.1,0,0,1,4.2,2.73l-1.74-5.34L390.41,339q-.84-2.52-1.66-5t-1.65-4.84c-.54-1.6-1.08-3.2-1.64-4.81s-1.1-3.23-1.67-4.87-1.13-3.25-1.7-4.89-1.15-3.33-1.76-5.07l-1.9-5.43c-.66-1.88-1.34-3.83-2.06-5.86l-2-5.76q-1-2.71-1.83-5.14c-.57-1.63-1.16-3.29-1.83-5.16s-1.3-3.64-1.91-5.34-1.19-3.34-1.76-4.92-1.11-3.1-1.64-4.58-1.05-2.92-1.56-4.32-1-2.75-1.47-4.06-2-5.54-2.75-7.6l-1.22-3.35"/><path class="cls-6" d="M367,272a19.69,19.69,0,0,0-4.3-3.37,18.58,18.58,0,0,0-4.54-1.59,30.31,30.31,0,0,0-5.45-.67,29.57,29.57,0,0,0-4.2.11c-1.29.1-2.64.27-4.1.52s-3,.58-4.74,1-3.53,1-5.49,1.65-4.82,1.79-6.35,2.45-3,1.33-4.46,2-2.84,1.41-4.22,2.14-2.74,1.48-4.06,2.23-2.63,1.54-4,2.35-2.69,1.68-4.11,2.6-2.87,1.89-4.42,2.95-3.18,2.23-4.93,3.51-3.63,2.69-5.67,4.28c1.23,2.48,1.72,3.57,2.36,5s1.25,2.87,1.82,4.29,1.13,2.86,1.69,4.39,1.12,3.15,1.72,5,1.21,3.82,1.87,6.15,1.22,4.52,1.72,6.62.79,3.4,1.08,4.82.58,2.83.85,4.3.55,3,.82,4.71.54,3.55.82,5.67c1.87-1.33,3.64-2.53,5.33-3.64s3.28-2.12,4.82-3.06,3-1.83,4.48-2.66,2.86-1.62,4.28-2.38,2.82-1.49,4.25-2.21,3-1.49,4.62-2.23,3.22-1.45,4.93-2.17,3.48-1.42,5.35-2.1,4.06-1.46,5.88-2,3.64-1.08,5.5-1.54,3.59-.83,5.22-1.11,3.17-.5,4.65-.63a42,42,0,0,1,4.44-.21,36.51,36.51,0,0,1,5.29.42,20.25,20.25,0,0,1,5.26,1.51,13.86,13.86,0,0,1,4.41,3.32c-.73-2.14-1.4-4.09-2-5.91l-1.72-5c-.56-1.58-1.09-3.12-1.64-4.7s-1.12-3.19-1.72-4.93l-2-5.61c-.72-2-1.35-3.85-1.95-5.52l-1.65-4.68c-.53-1.48-1-2.76-1.63-4.58l-2-5.54c-.68-1.9-1.39-3.89-2.15-6"/><polygon class="cls-7" points="350.54 287.94 350.56 287.83 350.68 287.83 350.65 287.96 350.54 287.94"/><polygon class="cls-8" points="350.3 287.23 350.3 287.14 350.38 287.19 350.38 287.27 350.3 287.23"/><polygon class="cls-8" points="350.36 287.04 350.47 287.12 350.64 286.95 350.64 286.9 350.6 286.87 350.35 286.89 350.36 287.04"/><polygon class="cls-8" points="350.14 287.12 350.16 287.26 349.93 287.33 349.89 287.31 349.88 287.27 350 287.06 350.14 287.12"/><polygon class="cls-8" points="350.56 286.92 350.61 286.81 350.73 286.89 350.67 287 350.56 286.92"/><polygon class="cls-8" points="349.86 287.34 349.7 287.21 349.56 287.17 349.65 287.08 349.74 287.11 349.73 287.08 349.81 287.13 349.87 287.28 349.86 287.34"/><polygon class="cls-8" points="349.85 287.29 349.94 287.28 350 287.38 349.9 287.39 349.85 287.29"/><path class="cls-8" d="M359.64,307.88V308a.65.65,0,0,0,.64.48c-1.55.22-2.35.36-4,.72a.51.51,0,0,0,.36-.65l-.06-.13h.08c1.2-.25,1.78-.35,2.92-.53l.07,0"/><path class="cls-7" d="M359,303.23c.46.22.78.47.79.6s-.07.24-.2.4-.05.87-.05.87a2.86,2.86,0,0,1-.64-.86,1.16,1.16,0,0,1,.1-1"/><path d="M359.55,305.13a1.66,1.66,0,0,1-.67-.89,1.27,1.27,0,0,1,.11-1c.28.11.85.41.85.64s-.07.24-.18.39a.86.86,0,0,0-.17.66l0,.14.05,0,0,.06m-.54-1.86a1.29,1.29,0,0,0-.06,1,1.56,1.56,0,0,0,.49.74l0-.09a.93.93,0,0,1,.16-.68c.13-.17.21-.27.19-.38s-.25-.32-.76-.55"/><path class="cls-8" d="M352.09,296.9c0-.54-.07-1.6-.07-1.6l-.09.05-.09,0,.08,1.14s-.66-.8-.79-.83l-.17.08-.18.07a5.1,5.1,0,0,0,1.14,1.13l.08-.05Z"/><path class="cls-8" d="M338.57,291.67a16.7,16.7,0,0,1-5.3,1.15c-.08,0-.17-.1-.21-.21a.31.31,0,0,1,.05-.3,12.53,12.53,0,0,1,4.75-2.75,18.58,18.58,0,0,1,3.24-.85,11.32,11.32,0,0,1,2.64-.16.28.28,0,0,1,.22.21.25.25,0,0,1-.06.3,17.23,17.23,0,0,1-2.25,1.32C340.75,290.81,339.72,291.25,338.57,291.67Z"/><path d="M338.58,291.71h0a15.83,15.83,0,0,1-5.3,1.15c-.1,0-.2-.1-.24-.24a.35.35,0,0,1,0-.35,12.46,12.46,0,0,1,4.77-2.75,19.25,19.25,0,0,1,3.19-.85,10.76,10.76,0,0,1,2.7-.16.32.32,0,0,1,.26.24.29.29,0,0,1-.07.34,15.75,15.75,0,0,1-2.3,1.34A32.29,32.29,0,0,1,338.58,291.71Zm-.71-2.1a13.48,13.48,0,0,0-4.74,2.74l0,.24.18.18a16.73,16.73,0,0,0,5.28-1.15,31.13,31.13,0,0,0,3-1.26,19.38,19.38,0,0,0,2.29-1.34l.05-.25-.19-.17a12.15,12.15,0,0,0-2.68.15A18.39,18.39,0,0,0,337.87,289.61Z"/><path class="cls-7" d="M338.45,291.33a28.65,28.65,0,0,1-4.91,1.13A18,18,0,0,1,338,290a26.37,26.37,0,0,1,5.43-1A34.45,34.45,0,0,1,338.45,291.33Z"/><path class="cls-9" d="M335.82,289.68a.23.23,0,0,1,.14-.29.22.22,0,0,1,.28.13.23.23,0,0,1-.13.29A.21.21,0,0,1,335.82,289.68Z"/><path class="cls-9" d="M333.47,291.06a.23.23,0,0,1,.08-.28.19.19,0,0,1,.23.15c0,.13,0,.25-.08.28S333.52,291.18,333.47,291.06Z"/><path class="cls-7" d="M332.58,291.87c0-.16,0-.24.06-.4l.5-.11c-.09.23-.14.34-.24.57Z"/><path d="M332.92,292l-.34-.06c0-.18,0-.28,0-.46l.52-.13C333.05,291.58,333,291.71,332.92,292Z"/><path class="cls-9" d="M339.05,288.51a.22.22,0,1,1,.41-.14.23.23,0,0,1-.13.29A.23.23,0,0,1,339.05,288.51Z"/><path class="cls-9" d="M342.17,288a.2.2,0,0,1,.13-.27.23.23,0,0,1,.26.15.21.21,0,0,1-.12.28A.23.23,0,0,1,342.17,288Z"/><path class="cls-7" d="M344,287.86c-.14-.1-.2-.16-.33-.26l-.55.24.6.28Z"/><path d="M343.7,288.17l-.62-.28.54-.33.37.27A4.38,4.38,0,0,0,343.7,288.17Z"/><path class="cls-10" d="M346,316.69a13.74,13.74,0,0,1-3.47.79,12,12,0,0,1-3.06-.19,4.35,4.35,0,0,1-3.15-3.41c-.34-1.34-.6-2.33-.86-3.31s-.49-1.85-.92-3.42c1.51-.7,2.8-1.26,4-1.76s2.52-1,3.9-1.56,2.71-1,4.12-1.45,3.07-.95,4.91-1.42l1,3.45c.29,1,.58,2,1,3.4a5,5,0,0,1-1.37,5.05,19.67,19.67,0,0,1-2.77,2.22A15.62,15.62,0,0,1,346,316.69Z"/><path d="M346,316.74a13.37,13.37,0,0,1-3.43.78,11.55,11.55,0,0,1-3.11-.17,4.41,4.41,0,0,1-3.19-3.45c-.34-1.34-.6-2.33-.86-3.31s-.49-1.85-.92-3.42c1.51-.71,2.81-1.28,4-1.78s2.53-1.06,3.91-1.58,2.72-1,4.13-1.47,3.07-1,4.92-1.44c.44,1.52.73,2.46,1,3.48s.6,2,1,3.42a5,5,0,0,1-1.38,5.1,19.55,19.55,0,0,1-2.85,2.27A16.64,16.64,0,0,1,346,316.74ZM351.37,301c-1.84.48-3.49,1-4.9,1.44s-2.74.93-4.11,1.45-2.7,1.07-3.88,1.57-2.47,1.08-4,1.78l.93,3.37c.26,1,.53,2,.87,3.28a4.31,4.31,0,0,0,3.12,3.37,9.24,9.24,0,0,0,4.1,0,17.76,17.76,0,0,0,4.57-1.63,17.57,17.57,0,0,0,3.87-2.83,4.92,4.92,0,0,0,1.35-5c-.38-1.36-.67-2.38-1-3.39Z"/><path class="cls-10" d="M342.35,303.82c1.84-.7,3.16-1.15,4.46-1.56s2.75-.85,4.6-1.32c-.48-1.68-.89-3.06-1.28-4.33s-.74-2.45-1.13-3.69-.8-2.57-1.31-4.12c-1.82.42-3.26.82-4.58,1.21s-2.68.83-4.57,1.51c.52,1.57.95,2.9,1.35,4.16s.77,2.44,1.16,3.73S341.86,302.11,342.35,303.82Z"/><path d="M351.47,301c-1.85.47-3.32.91-4.62,1.32s-2.63.87-4.48,1.57c-.5-1.72-.92-3.13-1.32-4.43s-.78-2.48-1.18-3.74-.85-2.6-1.38-4.17c1.9-.7,3.26-1.14,4.59-1.55s2.77-.81,4.6-1.24c.51,1.57.94,2.9,1.34,4.15s.76,2.43,1.15,3.72S351,299.3,351.47,301Zm-3.82-12.18c-1.81.43-3.24.84-4.55,1.24s-2.66.83-4.54,1.52c.52,1.56,1,2.88,1.36,4.13s.78,2.43,1.17,3.72.81,2.68,1.31,4.38c1.81-.7,3.12-1.15,4.41-1.56s2.71-.86,4.54-1.34c-.48-1.67-.89-3-1.27-4.31s-.74-2.44-1.13-3.68S348.15,290.36,347.65,288.81Z"/><path class="cls-7" d="M344.29,310.61a5.52,5.52,0,0,1-.4,3.92,5,5,0,0,1-2.52,2.55,3.43,3.43,0,0,1-3.12-.29,4.72,4.72,0,0,1-2-2.91c-.33-1.34-.6-2.33-.86-3.32s-.49-1.86-.92-3.43c1.51-.7,2.61-1.18,3.71-1.64s2.34-1,4.18-1.68c.43,1.54.7,2.44,1,3.44Z"/><path class="cls-8" d="M339,317.13a3.43,3.43,0,0,0,1.07.17c-.39-1.55-.73-2.83-1-4s-.62-2.29-.94-3.46l-1.15-4.09-.87.38c.7,2.54,1.09,3.92,1.52,5.54S338.41,314.91,339,317.13Z"/><path d="M340.09,317.36h0a2.62,2.62,0,0,1-.9-.13l-.19-.05c-.56-2.22-1-3.86-1.42-5.49s-.83-3-1.53-5.56l.88-.46c.51,1.78.85,3,1.18,4.14s.63,2.28,1,3.48S339.69,315.79,340.09,317.36Zm-3.23-11.61-.81.42c.7,2.52,1.09,3.89,1.53,5.5s.86,3.24,1.42,5.44h.15a2.83,2.83,0,0,0,.83.13c-.39-1.54-.73-2.82-1.05-4s-.61-2.27-.93-3.44S337.36,307.5,336.86,305.75Z"/><path class="cls-8" d="M336.22,313.8a5.41,5.41,0,0,0,1.68,2.77c-.49-2-.88-3.5-1.27-5s-.73-2.74-1.36-5l-.85.38c.43,1.59.67,2.51.94,3.51S335.88,312.44,336.22,313.8Z"/><path d="M337.92,316.63h0a5.28,5.28,0,0,1-1.69-2.8l-.87-3.37c-.27-1-.51-1.92-.94-3.51l.87-.47c.64,2.33,1,3.61,1.39,5.09s.8,3,1.31,5l0,.05Zm-2.69-10.08-.79.43.94,3.47c.27,1,.53,2,.88,3.33a5.52,5.52,0,0,0,1.57,2.67c-.49-2-.87-3.45-1.26-4.91S335.85,308.84,335.23,306.55Z"/><path class="cls-11" d="M340.9,317.24a4.54,4.54,0,0,0,.91-.36c-.42-1.59-.77-2.91-1.1-4.13s-.64-2.34-1-3.54-.69-2.38-1.2-4.18l-.85.36c.51,1.81.84,3,1.18,4.18s.64,2.32,1,3.54S340.5,315.64,340.9,317.24Z"/><path d="M341.38,317.14a2.6,2.6,0,0,1-.47.15c-.41-1.6-.76-2.91-1.09-4.14s-.64-2.34-1-3.55-.68-2.38-1.2-4.19l.87-.43c.53,1.8.88,3,1.22,4.19s.66,2.33,1,3.55.69,2.54,1.11,4.14A1.27,1.27,0,0,1,341.38,317.14Zm-2.89-12.09-.79.41c.51,1.79.85,3,1.18,4.14s.65,2.31,1,3.52.67,2.52,1.08,4.1a1.92,1.92,0,0,1,.41-.19,3.55,3.55,0,0,0,.44-.21c-.42-1.58-.77-2.89-1.1-4.1l-1-3.52C339.36,308,339,306.84,338.49,305.05Z"/><path class="cls-8" d="M342.53,316.31a4.45,4.45,0,0,0,.85-.92c-.4-1.48-.74-2.71-1.05-3.84s-.62-2.19-.94-3.31-.66-2.24-1.14-3.91l-.95.39c.5,1.75.85,2.91,1.18,4.09s.64,2.27,1,3.46S342.12,314.75,342.53,316.31Z"/><path d="M342.51,316.39c-.41-1.57-.76-2.86-1.09-4.06s-.64-2.3-1-3.48-.68-2.35-1.19-4.12l1-.46c.5,1.67.84,2.81,1.17,3.93s.63,2.18,1,3.32.67,2.37,1.08,3.85a4.21,4.21,0,0,1-.88,1Zm-2.31-12c-.42.19-.56.27-.88.42.5,1.74.84,2.88,1.18,4.05s.64,2.24,1,3.42.67,2.45,1.08,4a5,5,0,0,0,.79-.87c-.6-2.22-1.06-3.85-1.52-5.48S340.93,306.84,340.2,304.35Z"/><path class="cls-7" d="M334.48,307.13c1.5-.69,2.61-1.17,3.7-1.64s2.34-1,4.18-1.68c-.5-1.71-.91-3.11-1.3-4.4s-.76-2.48-1.16-3.74-.83-2.59-1.35-4.15c-1.89.68-3.13,1.18-4.19,1.61s-2.13.88-3.59,1.52c.52,1.58.94,2.93,1.33,4.2s.74,2.48,1.12,3.8S334,305.39,334.48,307.13Z"/><path class="cls-8" d="M344.1,314a5.33,5.33,0,0,0,.31-3c-.4-1.48-.71-2.58-1-3.68s-.61-2.11-1.08-3.79l-1.08.42c.66,2.26,1.05,3.57,1.47,5.05S343.56,312,344.1,314Z"/><path d="M344.09,314.1c-.56-2-1-3.54-1.41-5s-.82-2.81-1.49-5.11l1.11-.49c.49,1.69.8,2.72,1.11,3.82s.63,2.2,1,3.69a5.52,5.52,0,0,1-.31,3Zm-1.82-10.56-1,.46c.65,2.22,1,3.49,1.47,4.94s.84,2.91,1.39,4.88a5.67,5.67,0,0,0,.24-2.82c-.4-1.48-.71-2.58-1-3.68Z"/><path d="M341.39,317.13a3.46,3.46,0,0,1-3.15-.29,4.77,4.77,0,0,1-2-2.94c-.34-1.34-.6-2.33-.86-3.32s-.5-1.86-.92-3.43c1.51-.71,2.62-1.21,3.72-1.69s2.34-1,4.18-1.71c.45,1.55.73,2.46,1,3.46s.59,2,1,3.38a5.61,5.61,0,0,1-.41,4A5,5,0,0,1,341.39,317.13Zm.92-13.3c-1.83.7-3.05,1.22-4.14,1.69s-2.19,1-3.68,1.67c.43,1.56.66,2.41.93,3.38s.53,2,.87,3.29a4.73,4.73,0,0,0,2,2.88,3.4,3.4,0,0,0,3.09.29,5,5,0,0,0,2.48-2.52,5.5,5.5,0,0,0,.4-3.89c-.37-1.35-.66-2.35-.94-3.35Z"/><path class="cls-7" d="M351.42,300.93c.43,1.51.71,2.45,1,3.47s.58,2,1,3.4a5,5,0,0,1-.45,3.83A5.15,5.15,0,0,1,350,314a4.43,4.43,0,0,1-3.49-.43,5,5,0,0,1-2.25-3l-.94-3.36c-.29-1-.56-1.9-1-3.44,1.85-.7,3.17-1.14,4.46-1.56S349.57,301.4,351.42,300.93Z"/><path d="M350.05,314.06a4.41,4.41,0,0,1-3.53-.44,5,5,0,0,1-2.28-3c-.37-1.35-.66-2.35-.94-3.35l-1-3.44c1.84-.72,3.17-1.18,4.48-1.6s2.76-.87,4.61-1.35c.45,1.51.74,2.46,1,3.48l1,3.43a5.06,5.06,0,0,1-.45,3.87A5.24,5.24,0,0,1,350.05,314.06ZM351.37,301c-1.84.48-3.28.92-4.57,1.34s-2.6.88-4.43,1.58c.45,1.52.72,2.41,1,3.4s.58,2,1,3.32a4.8,4.8,0,0,0,2.23,2.93A4.37,4.37,0,0,0,350,314a5.13,5.13,0,0,0,2.87-2.36,5,5,0,0,0,.44-3.79c-.38-1.37-.67-2.38-1-3.4S351.81,302.46,351.37,301Z"/><path class="cls-7" d="M339.47,304.9a5.49,5.49,0,0,1-.11-3.27,3.16,3.16,0,0,1,1.78-2,2.55,2.55,0,0,1,2.44.46,5.1,5.1,0,0,1,1.69,2.66c.66,2.32-.19,4.21-1.82,4.82S340.15,307.23,339.47,304.9Z"/><path d="M343.46,307.58c-1.65.62-3.35-.29-4-2.66a5.51,5.51,0,0,1-.12-3.32,3.18,3.18,0,0,1,1.81-2.07,2.57,2.57,0,0,1,2.49.47,5.15,5.15,0,0,1,1.72,2.69,4.68,4.68,0,0,1-.08,3.05A3.1,3.1,0,0,1,343.46,307.58Zm-2.3-7.92a3.08,3.08,0,0,0-1.74,2,5.48,5.48,0,0,0,.09,3.22c.67,2.29,2.33,3.18,3.92,2.59s2.44-2.47,1.79-4.74S342.78,299.06,341.16,299.66Z"/><path class="cls-9" d="M379.89,345.3h-.67c-1.37,0-2.77.15-4.2.31-1.26.14-2.54.33-3.86.56l0,.14a58,58,0,0,1,8.72-.93l0-.09"/><path class="cls-12" d="M380.29,345.3h-.4l0,.09h.87c.89,0,1.75,0,2.57.08l0-.06c-1.05-.08-2.13-.11-3.06-.11"/><path class="cls-13" d="M370.06,319.18a39.77,39.77,0,0,0-4,.21c-1.18.11-2.4.26-3.68.47l8.78,26.32c1.32-.23,2.6-.42,3.86-.56,1.43-.16,2.83-.27,4.2-.31h1.07c.93,0,2,0,3.06.11l-8.66-26a37.16,37.16,0,0,0-4.19-.27h-.44m-21-63.86a5.83,5.83,0,0,0-1.88.31,6,6,0,0,0-3.72,7.52l1.27,3.8c1.34-.23,2.59-.38,3.79-.47.93-.08,1.71-.14,2.81-.14l1.39,0a31,31,0,0,1,4.42.46l-2.49-7.46a5.91,5.91,0,0,0-5.59-4.05"/><path class="cls-14" d="M359.17,310h-.09v0l.08,0m2.18-.2h0m-2.18-5.08.14.16-.14-.16M356.26,297l.12.4a4.72,4.72,0,0,1,.5-.16l0,0h0a6,6,0,0,0-.68-.25m-2.48-9.09-.25,0,.25,0h0m-.81-.77h0m.06,0,0,0h0l0,0m-.59-1v0l.07,0h-.06m0,0h0m-.16,0h0v0l.09,0-.05,0h0m-.14,0,.1,0s0,0,0,0h-.09m-.41-.31a.39.39,0,0,0-.27.11.61.61,0,0,1,.07.14.31.31,0,0,1,0,.08A1.18,1.18,0,0,1,352,286l.23,0a.56.56,0,0,0-.48-.28m-.75-.08,0,.1a.11.11,0,0,1,0-.05l0-.05m0,0h0l0,0h0l0,0m.23,0h0l0,0h0s0,0,0-.05m-.25-.22,0,.14h0l0-.07a.25.25,0,0,1,0-.07m.1,0a.64.64,0,0,1,0,.07l.07,0h0l-.09-.12m.22-19.06c-1.1,0-1.88.06-2.81.14-1.2.09-2.45.24-3.79.47l6.21,18.61h0l0-.15s0-.08-.05-.13h-.11l0-.12.12,0-.05-.11.1,0,0,.12.1,0,0,.13h-.1l.05.14.13.11h.08l0,.12h0a.28.28,0,0,1,0,.09l.05.05a.43.43,0,0,1,.11.12.24.24,0,0,1,.25-.2.69.69,0,0,1,.56.39h.05l0-.09.11.08,0,.05a.73.73,0,0,1,.21,0h.07a.87.87,0,0,1,.4.17.68.68,0,0,0-.54-.38.28.28,0,0,0-.22.1.2.2,0,0,1,.18-.16h0a.77.77,0,0,1,.63.54.25.25,0,0,1,0,.07.74.74,0,0,1,0,.12l0,0,.11.05-.09.08,0,.08a0,0,0,0,0,0,0l0,0h0v.06h-.07v0a.29.29,0,0,1-.05.22l-.12.08h0l.05.05,0,0h0v0h0v.13l.06.08-.08,0h0v.09l0,0,0,0v0c0,.09,0,.15-.08.19l-.08,0,.9-.12c.18.52.28.78.46,1.3l-.3,0a.19.19,0,0,1,.05.09.14.14,0,0,1-.14.2h0a1.46,1.46,0,0,0,0,.22l.19.22h0a.29.29,0,0,1,.22.18.17.17,0,0,1-.13.23c-.62.08-1.06.15-1.54.23l0,.13,1.5-.24c.51,1.55,1,3,1.38,4.27a4.31,4.31,0,0,1,2.22,1.08,1,1,0,0,1,.24.48c0,.07,0,1.64,0,1.95h0c0,.39-.36.71-1.08.9l.59,1.93c1,.25,2.05.71,2.06,1,.11.66.16,1,.27,1.65h0a0,0,0,0,1,0,0c0,.13-.07.24-.19.39a.92.92,0,0,0-.14.28,2.08,2.08,0,0,0,0,.54l0,0,0,.06a1.62,1.62,0,0,1-.67-.89,1.23,1.23,0,0,1,.08-1,4.93,4.93,0,0,0-.89-.32l0,.1c.4,1.32.84,2.75,1.33,4.4l-1.14.18,0,.12c.34-.06.69-.12,1.13-.18h0a.25.25,0,0,1,.23.17.19.19,0,0,1-.09.22v.12c.18.27.37.4.56.4h0l.05,0,0,0h0c.14.42.21.68.35,1.1h0a1.42,1.42,0,0,0,.52.09h.18c.08.23.13.34.21.58h0l.17.49h0c.07.18.11.29.18.5h0c.07.18.1.29.18.49h0l.17.49H362a1.52,1.52,0,0,1-.57-.11,1.23,1.23,0,0,0-.44-.08,1.3,1.3,0,0,0-.85.28,1,1,0,0,1-.16.12l2.45,7.34c1.27-.21,2.49-.36,3.68-.47a39.77,39.77,0,0,1,4-.21h.44a37.16,37.16,0,0,1,4.19.27l-17.55-52.62a29.64,29.64,0,0,0-4.42-.46l-1.39,0"/><path class="cls-15" d="M359.62,308l-1.14.15.18.54,1.37-.23a.7.7,0,0,1-.41-.46m0-.09h0a.41.41,0,0,0,.07.11l0,0v-.08"/></g><g id="cuerpo"><rect class="cls-16" x="331" y="176.42" width="22" height="54" rx="9" ry="9"/><g id="cuerpo-2" data-name="cuerpo"><path class="cls-16" d="M455.17,417.1l0-.9a22.83,22.83,0,0,0-17.53-22.91l-105-24.62c-.79-.18-1.58-.32-2.36-.42l.12-.29h-3.77a19.43,19.43,0,0,1-19.37-19.37h0a19.46,19.46,0,0,1,.28-3.17L250,398H211.34l-55.13-50.34v3.86A15.54,15.54,0,0,1,141.4,367a19.12,19.12,0,0,1-8.44,2h-1.63l0,0L27.63,393.29a22.53,22.53,0,0,0-12.27,7.62l0,0a22.29,22.29,0,0,0-6,16.21A22.55,22.55,0,0,0,9,420.71v64.13a21.81,21.81,0,0,0,1.65,8.32c.06.15.12.3.19.45h0a22.8,22.8,0,0,0,20.89,13.81h401a22.82,22.82,0,0,0,20.9-13.81h0l.18-.45a21.81,21.81,0,0,0,1.65-8.32V420.71A22.55,22.55,0,0,0,455.17,417.1Z"/><path class="cls-16" d="M281.77,330.88a11.57,11.57,0,0,1-1,.65,45.55,45.55,0,0,1-28.41,9.89H212.6a45.48,45.48,0,0,1-29.19-10.54L152,308v94.39a12,12,0,0,0,12,12H299a12,12,0,0,0,12-12V308.7Z"/><path class="cls-17" d="M282.58,334.75a11,11,0,0,1-1,.73A42.75,42.75,0,0,1,253,346.69H213a42.86,42.86,0,0,1-29.38-11.95l-29.68-24.32H152v36.27l32.2,31.73c72.45,15.87,127.8-68,127.8-68h-1Z"/><path class="cls-18" d="M281.61,89.42H183.39c-32.66,0-59.39,26-59.39,57.75V260.06A57.31,57.31,0,0,0,148.88,307a10.58,10.58,0,0,0,2.54,2.64l32,23.27a45.48,45.48,0,0,0,29.19,10.54h39.8a45.55,45.55,0,0,0,28.41-9.89,11.57,11.57,0,0,0,1-.65L313,309.15c.26-.2.5-.41.74-.62C330.12,298.21,341,280.32,341,260.06V147.17C341,115.41,314.27,89.42,281.61,89.42Z"/><path class="cls-16" d="M232.5,343.42s-37.5-6-54.5-70v-120s-3-18,27-24c0,0,72.79,4.16,100.89-34.92,0,0-11.85-4.4-17.87-4.74s-120.88-.82-116.95.92S135,89.92,124,145.17l1,125.68s1,14.22,18.46,31.9L190,337.45s11,5.29,17,5.63S232.5,343.42,232.5,343.42Z"/><path class="cls-19" d="M362.45,181.42c1.69-6,7.24-23.69,14.91-27,9.27-4-5.15-118-54.57-116s-16.48,68-16.48,68,32.25,13.71,32.94,75Z"/><path class="cls-20" d="M235.34.42h0c-77.32,4-111.59,23-111.59,23l14.3,10,.35.1-.55.35C93.89,61.2,87.94,124.43,87,150.42c.61.13,0,.52,0,.52l15.26,28.48h21.36s-1-63.06,69.16-67.12,53.91,12.2,113.93-11.19C353.76,82.77,333.89-6.85,235.34.42Z"/><path class="cls-21" d="M118.41,102.68s-7.58-35.11,19.5-69.26c0,0-50.91,23.72-50.91,112,0,0,10.83,7.59,15.16,28.46l6.39,5.59H114l8.77-5.59s8.67-60.72,61.74-61.67c49.19-.88,83.48-.94,89.1-.19C263.78,109.07,166.48,76.7,118.41,102.68Z"/><path class="cls-21" d="M274.39,112.16a2.28,2.28,0,0,0-.81-.19C274.16,112.14,274.45,112.22,274.39,112.16Z"/></g><rect class="cls-16" x="110" y="176.42" width="22" height="54" rx="9" ry="9"/></g><g id="camisa"><path class="cls-22" d="M437.53,398.42H249l.21.2L229,417.42l-20.21-18.8.21-.2H23.47A23.54,23.54,0,0,0,0,421.89V488a23.54,23.54,0,0,0,23.47,23.47H437.53A23.54,23.54,0,0,0,461,488V421.89A23.54,23.54,0,0,0,437.53,398.42Z"/><rect class="cls-22" x="2.78" y="379.98" width="157.47" height="74.23" rx="23.47" ry="23.47" transform="translate(-93.07 29.62) rotate(-13.2)"/><rect class="cls-22" x="300.79" y="379.88" width="158.31" height="74.23" rx="23.47" ry="23.47" transform="translate(654.66 909.72) rotate(-166.8)"/><path class="cls-23" d="M333.77,357.73l-9.65-13.41a8.5,8.5,0,0,0-1.79-2.49l-.32-.44-.2,0a8.43,8.43,0,0,0-4.74-1.89h0a8.46,8.46,0,0,0-4.78,1.07h-.06l-.13.12a8.64,8.64,0,0,0-2.5,2.28l-78.13,71.34,54.2,35.46,1.24.53a8.71,8.71,0,0,0,11.4-4.55l37-86.27A11,11,0,0,1,333.77,357.73Z"/><path class="cls-23" d="M124,357.73l9.65-13.41a8.68,8.68,0,0,1,1.79-2.49l.32-.44.21,0a8.37,8.37,0,0,1,4.73-1.89h0a8.44,8.44,0,0,1,4.78,1.07h.06l.14.12a8.6,8.6,0,0,1,2.49,2.28l78.13,71.34-54.2,35.46-1.24.53a8.71,8.71,0,0,1-11.4-4.55l-37-86.27A10.08,10.08,0,0,0,124,357.73Z"/><path class="cls-23" d="M460.67,418.69a23,23,0,0,0-6.2-17.27l-49.6,44.32a15.45,15.45,0,0,0-2.36,1.85l-4.27,4.08-5.81,5.18-.42.76-5.82,5.57c-4.1,3.91-6.15,9.84-6,15.74l-.2.35v32.15h57c13.22,0,24-10.49,24-23.31V422.49A22.75,22.75,0,0,0,460.67,418.69Z"/><path class="cls-23" d="M.33,418.69a23,23,0,0,1,6.2-17.27l49.6,44.32a15.45,15.45,0,0,1,2.36,1.85l4.27,4.08,5.81,5.18.42.76,5.82,5.57c4.1,3.91,6.15,9.84,6,15.74l.2.35v32.15H24c-13.22,0-24-10.49-24-23.31V422.49A22.75,22.75,0,0,1,.33,418.69Z"/><path class="cls-23" d="M352,511.42v-9.75a8.27,8.27,0,0,0-8.25-8.25h-61.5a8.27,8.27,0,0,0-8.25,8.25v9.75Z"/></g><g id="corbata"><polygon class="cls-24" points="213 436.42 247 436.42 252 511.42 208 511.42 213 436.42"/><path class="cls-25" d="M230.67,414.42h-4.09L207,427.23v2.94a8.27,8.27,0,0,0,8.25,8.25h27.5a8.27,8.27,0,0,0,8.25-8.25v-2.45Z"/></g><g id="auriculares"><rect class="cls-26" x="90" y="184.42" width="26.71" height="54" rx="12" ry="12"/><rect class="cls-24" x="98.9" y="172.42" width="26.71" height="79" rx="7.67" ry="7.67"/><path class="cls-27" d="M345.72,242.29c0,29.37-33.53,53.13-75,53.13"/><rect class="cls-26" x="345.72" y="186.21" width="26.28" height="53.13" rx="12" ry="12" transform="translate(717.72 425.55) rotate(180)"/><rect class="cls-24" x="336.96" y="173.42" width="26.28" height="77.73" rx="7.67" ry="7.67" transform="translate(700.2 424.56) rotate(180)"/><rect class="cls-26" x="249.32" y="287.42" width="26.71" height="17" rx="8.5" ry="8.5"/></g></g></g></svg>