<svg xmlns="http://www.w3.org/2000/svg" viewBox="0 0 507.3 511.8"><defs><style>.cls-1{fill:#bb2c1f;}.cls-2{fill:#ffcc4d;}.cls-3{fill:#dd2e44;}.cls-4{fill:#e6aaaa;}.cls-5{fill:#272b2b;}.cls-6{fill:#ffe8b6;}.cls-7{fill:#d99e82;}</style></defs><title>Recurso 1</title><g id="Capa_2" data-name="Capa 2"><g id="capaLeon"><path id="pelo" class="cls-1" d="M457.4,155.6s32.9.3,49.9,16.7c-4.5-70.4-29.7-117-84.3-143.8-44.7-15.9-86.3,20.7-86.3,20.7S349,20.9,367.8,10.1C336.1,3.3,298.6,0,253.8,0c-44.6,0-82.3,3.2-113.9,10,19.1,10.6,31.5,39.2,31.5,39.2s-42.9-37.8-88.3-20C29.4,56.2,4.6,102.7,0,173.1c16.8-16.9,50.5-17.3,50.5-17.3S-3.7,188.6,1.8,236.2c5.5,41.9,19.8,84.9,40.9,124-1.7-45.3,39.2-75.9,39.2-75.9s-35.4,84.8-8.3,124.3c27.5,36.2,61.3,66,99.2,84.1-13.6-23.4-1.9-43.3-1.5-41.9.6,1.8,6.5,44.3,30.4,53.2a179.94,179.94,0,0,0,51.2,7.8h1.4a180.4,180.4,0,0,0,52.8-8.3c23-9.8,28.8-51,29.4-52.7.5-1.4,12,18.3-1.3,41.5,38.5-18.6,72.8-49.3,100.5-86.4,24.1-40.5-9.7-121.7-9.7-121.7s40.5,30.3,39.2,75.2c22.1-41.3,36.8-86.8,41.4-130.8C506.1,185.1,457.4,155.6,457.4,155.6Zm-47.81,31.25C414.51,184,419,179.52,423.1,173c-4,6.49-8.59,11-13.51,13.82Zm-1.77-82.76c-1-.1-2-.19-3-.26C405.84,103.9,406.85,104,407.82,104.09Zm-42.32,270a7.37,7.37,0,0,0-4.15,1.27,7.37,7.37,0,0,1,4.2-1.32,7.46,7.46,0,0,1,7.44,7.43,7.38,7.38,0,0,1-1.32,4.21,7.43,7.43,0,0,0-6.17-11.59Zm-15-29.83a7.42,7.42,0,0,0-4.16,1.26,7.38,7.38,0,0,1,4.21-1.32,7.46,7.46,0,0,1,7.43,7.44,7.35,7.35,0,0,1-1.33,4.22,7.43,7.43,0,0,0-6.15-11.6ZM335.66,389a7.43,7.43,0,0,0-4.16,1.27,7.38,7.38,0,0,1,4.21-1.32,7.46,7.46,0,0,1,7.43,7.43,7.38,7.38,0,0,1-1.32,4.21A7.43,7.43,0,0,0,335.66,389Zm-25.61,50.73H310a69.62,69.62,0,0,1-14.22-1.92h0A70.36,70.36,0,0,0,310.05,439.69Zm-168-65.6a7.4,7.4,0,0,0-4.15,1.27,7.38,7.38,0,0,1,4.21-1.32,7.46,7.46,0,0,1,7.43,7.43,7.35,7.35,0,0,1-1.33,4.23A7.44,7.44,0,0,0,142,374.09Zm15-29.83a7.42,7.42,0,0,0-6.14,3.24,7.43,7.43,0,1,1,12.29,8.36,7.42,7.42,0,0,0-6.15-11.6ZM171.87,389a7.43,7.43,0,0,0-4.16,1.27,7.38,7.38,0,0,1,4.21-1.32,7.46,7.46,0,0,1,7.44,7.43,7.38,7.38,0,0,1-1.34,4.23A7.43,7.43,0,0,0,171.87,389Zm-42.11-73,0-.13c9.35-5.45,27-7.59,60.29-8.25h0C156.59,308.27,139,310.45,129.76,316ZM97.94,186.85l-.11-.07c-2.61-33.68,5-60.46,40.32-76.68C103,126.33,95.21,153.13,97.94,186.85Zm1.77-82.76c1-.1,2-.19,3-.26,1.57-.1,3.23-.16,4.94-.17-1.71,0-3.37.07-4.94.17C101.69,103.9,100.68,104,99.71,104.09Zm-.1,99.09c.08.49.17,1,.25,1.48a76.51,76.51,0,0,1-13.35-5.48A98.28,98.28,0,0,0,99.61,203.18Zm307.78,0A94.39,94.39,0,0,0,423.64,198a77.26,77.26,0,0,1-16.53,7C407.2,204.36,407.3,203.76,407.39,203.18Z"/><path id="rostro" class="cls-2" d="M417.45,92.2c-13.1-3.2-53.4,2.1-80.3,16.6-21.1-4.9-48.4-7.5-83.6-7.5s-62.4,2.6-83.5,7.5c-26.9-14.6-67.2-19.9-80.3-16.6C70.65,97,55.55,139.6,64,173.6c4.4,17.8,22,28.2,42.5,33,2.8,18.1,7.5,37.9,11.9,58.9s8.2,38.8,11.4,53.4c6.69-8.74,23-11.77,63-12.56h0c-39.85.79-56.1,3.83-62.78,12.55-4.6,6-4.6,14.8-4.8,27.4-.8,65.9,34.3,84.6,67.3,86.1,2.48.1,5,.1,7.35.1h0a60.92,60.92,0,0,1-7.4-.1,70.52,70.52,0,0,0,122.19,0h.16c33-1.5,68.1-20.2,67.3-86.1-.1-12.6-.2-21.4-4.8-27.4l-.2-.24c3.19-14.56,7-32.18,11.35-53.16s9.2-40.8,11.9-58.9c20.6-4.7,38.2-15.2,42.6-33C451.75,139.6,436.55,97,417.45,92.2ZM161.3,341.3a7.13,7.13,0,0,1,7.1,7.1,7,7,0,0,1-1.27,4,7.1,7.1,0,0,0-11.74-8A7,7,0,0,1,161.3,341.3Zm-8.47,39.64a7.11,7.11,0,0,0-9.85-9.88,7.09,7.09,0,0,1,9.85,9.88Zm28.5,14.2a7.11,7.11,0,0,0-9.85-9.88,7.09,7.09,0,0,1,9.85,9.88ZM104.85,191l-.37-.22c-2.44-32.1,4.9-57.62,38.52-73.08-8.72-4.54-19.69-6.15-28.94-6.15,9.3,0,20.39,1.57,29.19,6.15C109.65,133.2,102.25,158.8,104.85,191ZM293.77,430.67h0a66.88,66.88,0,0,0,13.62,1.84h0A66.34,66.34,0,0,1,293.77,430.67Zm44-35.55a7.1,7.1,0,0,0-9.86-9.86,7.09,7.09,0,0,1,9.86,9.86Zm14.19-42.68a7.11,7.11,0,0,0-9.85-9.88,7.09,7.09,0,0,1,9.85,9.88Zm14.31,28.48a7.1,7.1,0,0,0-9.86-9.86,7.09,7.09,0,0,1,9.86,9.86ZM415.35,177.8c-3.8,6.2-8.2,10.5-12.9,13.2,0-.05,0-.11,0-.16,4.6-2.71,8.81-7,12.64-13,12.4-19.8,2.7-58.8-4.6-63.3-2.61-1.63-9.37-2.92-17.51-3,8.25,0,15.12,1.3,17.76,3C418.05,119,427.75,158,415.35,177.8Z"/><path id="lengua" class="cls-3" d="M253.65,444.2a46.94,46.94,0,0,0,34.6-15.1,65.1,65.1,0,0,1-34.6-26.9,64.63,64.63,0,0,1-34.6,26.9A46.94,46.94,0,0,0,253.65,444.2Z"/><g id="orejas"><path class="cls-4" d="M143.25,117.7c-16.5-8.6-41.1-6.7-46.7-3.2-7.3,4.5-17,43.5-4.6,63.3,3.8,6.1,8.1,10.5,12.8,13.2C102.25,158.8,109.55,133.2,143.25,117.7Z"/><path class="cls-4" d="M410.75,114.5c-5.6-3.5-30.2-5.4-46.7,3.2,33.6,15.5,40.9,41.1,38.4,73.3,4.7-2.7,9-7,12.9-13.2C427.75,158,418.05,119,410.75,114.5Z"/></g><path id="nariz" class="cls-5" d="M253.65,367.5c15,0,57.7-51.1,51.2-61.4a4.14,4.14,0,0,0-2.6-1.7c-16.2-3.3-81-3.3-97.2,0a3.49,3.49,0,0,0-2.6,1.7C196,316.5,238.65,367.5,253.65,367.5Z"/><g id="ojos"><path class="cls-5" d="M189.65,206.2c-21.3,0-21.3,21.3-21.3,21.3v21.3s0,21.3,21.3,21.3S211,248.8,211,248.8V227.5C211,227.6,211,206.2,189.65,206.2Z"/><path class="cls-5" d="M317.65,206.2c-21.3,0-21.3,21.3-21.3,21.3v21.3s0,21.3,21.3,21.3S339,248.8,339,248.8V227.5C339,227.6,339,206.2,317.65,206.2Z"/></g><path id="trompa" class="cls-6" d="M382.05,346.3c-.1-12.6-.2-21.4-4.8-27.4-7.1-9.4-25.4-12.2-72.4-12.7,6.5,10.3-36.2,61.4-51.2,61.4s-57.7-51.1-51.2-61.4c-47,.5-65.3,3.3-72.5,12.7-4.6,6-4.6,14.8-4.8,27.4-.8,65.9,34.3,84.6,67.3,86.1,2.5.1,5,.1,7.4.1a67.86,67.86,0,0,0,19.2-3.4,65.1,65.1,0,0,0,34.6-26.9,64.63,64.63,0,0,0,34.6,26.9,67.17,67.17,0,0,0,19.1,3.4,60.92,60.92,0,0,0,7.4-.1C347.75,430.9,382.85,412.2,382.05,346.3Zm-220.8-5a7.13,7.13,0,0,1,7.1,7.1v0a7.1,7.1,0,0,0-14.2,0v0A7.06,7.06,0,0,1,161.25,341.3Zm-7.2,35.63a7.1,7.1,0,0,0-14.2,0v0a7.1,7.1,0,0,1,14.2,0Zm28.5,14.19a7.1,7.1,0,0,0-14.2,0v0a7.1,7.1,0,0,1,14.2,0Zm156.4,0a7.1,7.1,0,0,0-14.2,0v0a7.1,7.1,0,1,1,14.2,0Zm14.2-42.69a7.1,7.1,0,0,0-14.2,0v0a7.1,7.1,0,0,1,14.2,0Zm14.3,28.49a7.1,7.1,0,0,0-14.2,0v0a7.1,7.1,0,1,1,14.2,0Z"/><g id="pecas"><circle class="cls-7" cx="161.25" cy="348.4" r="7.1"/><circle class="cls-7" cx="146.95" cy="376.9" r="7.1"/><circle class="cls-7" cx="175.45" cy="391.1" r="7.1"/><circle class="cls-7" cx="346.05" cy="348.4" r="7.1"/><circle class="cls-7" cx="360.35" cy="376.9" r="7.1"/><circle class="cls-7" cx="331.85" cy="391.1" r="7.1"/></g></g></g></svg>