<svg xmlns="http://www.w3.org/2000/svg" viewBox="0 0 461 511" id="el_4nm80-A2C"><style>@-webkit-keyframes kf_el_1swmXRpciE_an_I-gLZg2Fa{0%{opacity: 0;}33.33%{opacity: 0.01;}66.67%{opacity: 0.74;}100%{opacity: 0.74;}}@keyframes kf_el_1swmXRpciE_an_I-gLZg2Fa{0%{opacity: 0;}33.33%{opacity: 0.01;}66.67%{opacity: 0.74;}100%{opacity: 0.74;}}@-webkit-keyframes kf_el_1swmXRpciE_an_1tjsGN6xM{66.67%{-webkit-transform: translate(373.6949768066406px, 311.6668167114258px) translate(-373.6949768066406px, -311.6668167114258px) translate(-150px, 0px);transform: translate(373.6949768066406px, 311.6668167114258px) translate(-373.6949768066406px, -311.6668167114258px) translate(-150px, 0px);}83.33%{-webkit-transform: translate(373.6949768066406px, 311.6668167114258px) translate(-373.6949768066406px, -311.6668167114258px) translate(0px, 0px);transform: translate(373.6949768066406px, 311.6668167114258px) translate(-373.6949768066406px, -311.6668167114258px) translate(0px, 0px);}0%{-webkit-transform: translate(373.6949768066406px, 311.6668167114258px) translate(-373.6949768066406px, -311.6668167114258px) translate(-150px, 0px);transform: translate(373.6949768066406px, 311.6668167114258px) translate(-373.6949768066406px, -311.6668167114258px) translate(-150px, 0px);}100%{-webkit-transform: translate(373.6949768066406px, 311.6668167114258px) translate(-373.6949768066406px, -311.6668167114258px) translate(0px, 0px);transform: translate(373.6949768066406px, 311.6668167114258px) translate(-373.6949768066406px, -311.6668167114258px) translate(0px, 0px);}}@keyframes kf_el_1swmXRpciE_an_1tjsGN6xM{66.67%{-webkit-transform: translate(373.6949768066406px, 311.6668167114258px) translate(-373.6949768066406px, -311.6668167114258px) translate(-150px, 0px);transform: translate(373.6949768066406px, 311.6668167114258px) translate(-373.6949768066406px, -311.6668167114258px) translate(-150px, 0px);}83.33%{-webkit-transform: translate(373.6949768066406px, 311.6668167114258px) translate(-373.6949768066406px, -311.6668167114258px) translate(0px, 0px);transform: translate(373.6949768066406px, 311.6668167114258px) translate(-373.6949768066406px, -311.6668167114258px) translate(0px, 0px);}0%{-webkit-transform: translate(373.6949768066406px, 311.6668167114258px) translate(-373.6949768066406px, -311.6668167114258px) translate(-150px, 0px);transform: translate(373.6949768066406px, 311.6668167114258px) translate(-373.6949768066406px, -311.6668167114258px) translate(-150px, 0px);}100%{-webkit-transform: translate(373.6949768066406px, 311.6668167114258px) translate(-373.6949768066406px, -311.6668167114258px) translate(0px, 0px);transform: translate(373.6949768066406px, 311.6668167114258px) translate(-373.6949768066406px, -311.6668167114258px) translate(0px, 0px);}}@-webkit-keyframes kf_el_KvcjeILYKtT_an_NPrgw0vdL{50%{-webkit-transform: translate(90px, 172.4199981689453px) translate(-90px, -172.4199981689453px) translate(0px, -320px);transform: translate(90px, 172.4199981689453px) translate(-90px, -172.4199981689453px) translate(0px, -320px);}66.67%{-webkit-transform: translate(90px, 172.4199981689453px) translate(-90px, -172.4199981689453px) translate(0px, 0px);transform: translate(90px, 172.4199981689453px) translate(-90px, -172.4199981689453px) translate(0px, 0px);}0%{-webkit-transform: translate(90px, 172.4199981689453px) translate(-90px, -172.4199981689453px) translate(0px, -320px);transform: translate(90px, 172.4199981689453px) translate(-90px, -172.4199981689453px) translate(0px, -320px);}100%{-webkit-transform: translate(90px, 172.4199981689453px) translate(-90px, -172.4199981689453px) translate(0px, 0px);transform: translate(90px, 172.4199981689453px) translate(-90px, -172.4199981689453px) translate(0px, 0px);}}@keyframes kf_el_KvcjeILYKtT_an_NPrgw0vdL{50%{-webkit-transform: translate(90px, 172.4199981689453px) translate(-90px, -172.4199981689453px) translate(0px, -320px);transform: translate(90px, 172.4199981689453px) translate(-90px, -172.4199981689453px) translate(0px, -320px);}66.67%{-webkit-transform: translate(90px, 172.4199981689453px) translate(-90px, -172.4199981689453px) translate(0px, 0px);transform: translate(90px, 172.4199981689453px) translate(-90px, -172.4199981689453px) translate(0px, 0px);}0%{-webkit-transform: translate(90px, 172.4199981689453px) translate(-90px, -172.4199981689453px) translate(0px, -320px);transform: translate(90px, 172.4199981689453px) translate(-90px, -172.4199981689453px) translate(0px, -320px);}100%{-webkit-transform: translate(90px, 172.4199981689453px) translate(-90px, -172.4199981689453px) translate(0px, 0px);transform: translate(90px, 172.4199981689453px) translate(-90px, -172.4199981689453px) translate(0px, 0px);}}@-webkit-keyframes kf_el_pXnv0zQmXGO_an_VCPYgb3AX{33.33%{-webkit-transform: translate(207px, 414.4200134277344px) translate(-207px, -414.4200134277344px) translate(0px, 520px);transform: translate(207px, 414.4200134277344px) translate(-207px, -414.4200134277344px) translate(0px, 520px);}50%{-webkit-transform: translate(207px, 414.4200134277344px) translate(-207px, -414.4200134277344px) translate(0px, 0px);transform: translate(207px, 414.4200134277344px) translate(-207px, -414.4200134277344px) translate(0px, 0px);}0%{-webkit-transform: translate(207px, 414.4200134277344px) translate(-207px, -414.4200134277344px) translate(0px, 520px);transform: translate(207px, 414.4200134277344px) translate(-207px, -414.4200134277344px) translate(0px, 520px);}100%{-webkit-transform: translate(207px, 414.4200134277344px) translate(-207px, -414.4200134277344px) translate(0px, 0px);transform: translate(207px, 414.4200134277344px) translate(-207px, -414.4200134277344px) translate(0px, 0px);}}@keyframes kf_el_pXnv0zQmXGO_an_VCPYgb3AX{33.33%{-webkit-transform: translate(207px, 414.4200134277344px) translate(-207px, -414.4200134277344px) translate(0px, 520px);transform: translate(207px, 414.4200134277344px) translate(-207px, -414.4200134277344px) translate(0px, 520px);}50%{-webkit-transform: translate(207px, 414.4200134277344px) translate(-207px, -414.4200134277344px) translate(0px, 0px);transform: translate(207px, 414.4200134277344px) translate(-207px, -414.4200134277344px) translate(0px, 0px);}0%{-webkit-transform: translate(207px, 414.4200134277344px) translate(-207px, -414.4200134277344px) translate(0px, 520px);transform: translate(207px, 414.4200134277344px) translate(-207px, -414.4200134277344px) translate(0px, 520px);}100%{-webkit-transform: translate(207px, 414.4200134277344px) translate(-207px, -414.4200134277344px) translate(0px, 0px);transform: translate(207px, 414.4200134277344px) translate(-207px, -414.4200134277344px) translate(0px, 0px);}}@-webkit-keyframes kf_el_yk7KLFbT0H__an_-zDuYSdV6{16.67%{-webkit-transform: translate(-3.5946855545043945px, 339.4767761230469px) translate(3.5946855545043945px, -339.4767761230469px) translate(0px, 520px);transform: translate(-3.5946855545043945px, 339.4767761230469px) translate(3.5946855545043945px, -339.4767761230469px) translate(0px, 520px);}33.33%{-webkit-transform: translate(-3.5946855545043945px, 339.4767761230469px) translate(3.5946855545043945px, -339.4767761230469px) translate(0px, 0px);transform: translate(-3.5946855545043945px, 339.4767761230469px) translate(3.5946855545043945px, -339.4767761230469px) translate(0px, 0px);}0%{-webkit-transform: translate(-3.5946855545043945px, 339.4767761230469px) translate(3.5946855545043945px, -339.4767761230469px) translate(0px, 520px);transform: translate(-3.5946855545043945px, 339.4767761230469px) translate(3.5946855545043945px, -339.4767761230469px) translate(0px, 520px);}100%{-webkit-transform: translate(-3.5946855545043945px, 339.4767761230469px) translate(3.5946855545043945px, -339.4767761230469px) translate(0px, 0px);transform: translate(-3.5946855545043945px, 339.4767761230469px) translate(3.5946855545043945px, -339.4767761230469px) translate(0px, 0px);}}@keyframes kf_el_yk7KLFbT0H__an_-zDuYSdV6{16.67%{-webkit-transform: translate(-3.5946855545043945px, 339.4767761230469px) translate(3.5946855545043945px, -339.4767761230469px) translate(0px, 520px);transform: translate(-3.5946855545043945px, 339.4767761230469px) translate(3.5946855545043945px, -339.4767761230469px) translate(0px, 520px);}33.33%{-webkit-transform: translate(-3.5946855545043945px, 339.4767761230469px) translate(3.5946855545043945px, -339.4767761230469px) translate(0px, 0px);transform: translate(-3.5946855545043945px, 339.4767761230469px) translate(3.5946855545043945px, -339.4767761230469px) translate(0px, 0px);}0%{-webkit-transform: translate(-3.5946855545043945px, 339.4767761230469px) translate(3.5946855545043945px, -339.4767761230469px) translate(0px, 520px);transform: translate(-3.5946855545043945px, 339.4767761230469px) translate(3.5946855545043945px, -339.4767761230469px) translate(0px, 520px);}100%{-webkit-transform: translate(-3.5946855545043945px, 339.4767761230469px) translate(3.5946855545043945px, -339.4767761230469px) translate(0px, 0px);transform: translate(-3.5946855545043945px, 339.4767761230469px) translate(3.5946855545043945px, -339.4767761230469px) translate(0px, 0px);}}@-webkit-keyframes kf_el_plnRsTfgI9f_an_ZjQJ3NDQS{0%{-webkit-transform: translate(9px, 0.00152587890625px) translate(-9px, -0.00152587890625px) translate(0px, 520px);transform: translate(9px, 0.00152587890625px) translate(-9px, -0.00152587890625px) translate(0px, 520px);}16.67%{-webkit-transform: translate(9px, 0.00152587890625px) translate(-9px, -0.00152587890625px) translate(0px, 0px);transform: translate(9px, 0.00152587890625px) translate(-9px, -0.00152587890625px) translate(0px, 0px);}100%{-webkit-transform: translate(9px, 0.00152587890625px) translate(-9px, -0.00152587890625px) translate(0px, 0px);transform: translate(9px, 0.00152587890625px) translate(-9px, -0.00152587890625px) translate(0px, 0px);}}@keyframes kf_el_plnRsTfgI9f_an_ZjQJ3NDQS{0%{-webkit-transform: translate(9px, 0.00152587890625px) translate(-9px, -0.00152587890625px) translate(0px, 520px);transform: translate(9px, 0.00152587890625px) translate(-9px, -0.00152587890625px) translate(0px, 520px);}16.67%{-webkit-transform: translate(9px, 0.00152587890625px) translate(-9px, -0.00152587890625px) translate(0px, 0px);transform: translate(9px, 0.00152587890625px) translate(-9px, -0.00152587890625px) translate(0px, 0px);}100%{-webkit-transform: translate(9px, 0.00152587890625px) translate(-9px, -0.00152587890625px) translate(0px, 0px);transform: translate(9px, 0.00152587890625px) translate(-9px, -0.00152587890625px) translate(0px, 0px);}}#el_4nm80-A2C *{-webkit-animation-duration: 3s;animation-duration: 3s;-webkit-animation-iteration-count: 1;animation-iteration-count: 1;-webkit-animation-timing-function: cubic-bezier(0, 0, 1, 1);animation-timing-function: cubic-bezier(0, 0, 1, 1);}#el_1swmXRpciE{opacity: 0;-webkit-animation-fill-mode: forwards;animation-fill-mode: forwards;-webkit-animation-name: kf_el_1swmXRpciE_an_I-gLZg2Fa;animation-name: kf_el_1swmXRpciE_an_I-gLZg2Fa;-webkit-animation-timing-function: cubic-bezier(0, 0, 1, 1);animation-timing-function: cubic-bezier(0, 0, 1, 1);}#el_Wy1j_zDZkU{fill: #a00016;}#el_UYRuiTG2JC{fill: #a00016;}#el_RphtHs6rYW{fill: #a00016;}#el_NjjQmHjdGd{fill: #a00016;}#el_2_Fv7EAny4{fill: #a00016;}#el_1NzXJbxZB5{fill: #a00016;}#el_sx63ExRYzb{fill: #c9c9c9;}#el_rtAShx5cdk{fill: #c9c9c9;}#el_6cMggoZu44{fill: #c9c9c9;}#el_aZ4TZoZ9rE{fill: #c9c9c9;}#el__peELRX2jX{fill: #c9c9c9;}#el_W5WJq28AAI{fill: #c9c9c9;}#el_4TpMzfI3acs{fill: #a00016;}#el_MnONsRHZaV7{fill: #700d20;}#el_t28qXRtYF28{fill: #cb001c;}#el_G_7O60gn-2G{fill: #cb001c;}#el_x5u6AT8ZUCI{fill: #cb001c;}#el_dF9rqYZp9aW{fill: #cb001c;}#el_cyZcOOFGYep{fill: #cb001c;}#el_8ADA1swsSEa{fill: #cb001c;}#el_Nk0gCmJWqWz{fill: #f4f4f4;}#el_eTHrTB3Jj3L{fill: #f4f4f4;}#el_HBOTGd2DB9H{fill: #f4f4f4;}#el_fBwTlhPsnBx{fill: #f4f4f4;}#el_64qW52QHIXk{fill: #f4f4f4;}#el__D_OjASNsPL{fill: #f4f4f4;}#el_Hao2pK3dGH8{fill: #cb001c;}#el_UleBNpOxYN7{fill: #2a3560;}#el_K8kq4ntXRmK{fill: #f4f4f4;}#el_8iFgmnMiNgD{fill: #f4f4f4;}#el_cbTlwHm79Dx{fill: #f4f4f4;}#el_dae4ZPE3pAf{fill: #f4f4f4;}#el_cuReeZZY0-2{fill: #f4f4f4;}#el_k18GohjG1az{fill: #f4f4f4;}#el_Tfrb9nX7EE8{fill: #f4f4f4;}#el_pJYi9eqKhG1{fill: #f4f4f4;}#el_6EWvnTfERHC{fill: #f4f4f4;}#el_J8fPuYdnw5s{fill: #f4f4f4;}#el_m3yUAHgc2g3{fill: #f4f4f4;}#el_Si1xJVQYbVZ{fill: #f4f4f4;}#el_SwzHY8LAhet{fill: #f4f4f4;}#el_2qoXnRKUvI8{fill: #f4f4f4;}#el_Puot2L93G0l{fill: #f4f4f4;}#el_heuiIH0xXPW{fill: #f4f4f4;}#el_sjQBh3TvZ1G{fill: #f4f4f4;}#el_CVzoqy8sTnH{fill: #f4f4f4;}#el_-Reznr4Yl-1{fill: #f4f4f4;}#el_K9F7OXyMkiU{fill: #f4f4f4;}#el_JKO4UOs67kd{fill: #f4f4f4;}#el_WX-qcaWw11Y{fill: #f4f4f4;}#el_PdoLopRBaaU{fill: #f4f4f4;}#el_d5yZkZZHYWY{fill: #f4f4f4;}#el_Mr34-_3h1fC{fill: #f4f4f4;}#el_jR6IRVTSdJq{fill: #f4f4f4;}#el_YoLctYyJ2P4{fill: #f4f4f4;}#el_-3r3hjpRCho{fill: #f4f4f4;}#el_wtXh4KDKGlQ{fill: #f4f4f4;}#el_3M2iozHKpYL{fill: #f4f4f4;}#el_mbA0WV70ciz{fill: #f4f4f4;}#el_X2V5Xf2t9Ag{fill: #f4f4f4;}#el_r5aMC3wO80W{fill: #f4f4f4;}#el_Tve2UrG1YDU{fill: #f4f4f4;}#el_e50l6tPIWJg{fill: #f4f4f4;}#el_TcR05U1UlJ9{fill: #f4f4f4;}#el_D4cFz_gYUYP{fill: #f4f4f4;}#el_qDI5ZKS9z4K{fill: #f4f4f4;}#el_CwNPbX9m5Jb{fill: #f4f4f4;}#el_jGE3Q259G1_{fill: #f4f4f4;}#el_W5CVUloQ9Nl{fill: #f4f4f4;}#el_LigBLWcVmDO{fill: #f4f4f4;}#el_vJJbBqCIK99{fill: #f4f4f4;}#el_MMB3uoJtq1q{fill: #f4f4f4;}#el_AwO5hL27Na2{fill: #f4f4f4;}#el_o1ud-Au1Dw2{fill: #f4f4f4;}#el_FW8vj1n8krm{fill: #f4f4f4;}#el_fQ9nZjhA9rO{fill: #f4f4f4;}#el_l5Na3q56I9z{fill: #f4f4f4;}#el_neKRNdPRQzT{fill: #f4f4f4;}#el_3dY6onMrpUI{fill: #fce159;}#el_c247-w_avDR{fill: #fff;}#el_eZEOZRCzOFf{fill: #e01a40;}#el_eDEqCs6FMSF{fill: #ff0038;}#el_Y2Wdr2fHnda{fill: #ff0038;}#el_Ye9CfBmC-aJ{fill: #ff0038;}#el_mpJ5fj7CGES{fill: #ff0038;}#el_COHqMez9t7O{fill: #fff;}#el_g7OqHZ_3-if{fill: #fff;}#el_7I27NNQM0te{fill: #fff;}#el_Cx40ezjOORa{fill: #546ac0;}#el_0PWG1NzfYdu{fill: #fff;}#el_g_y36NfRBxe{fill: #fff;}#el_3ioyid__3W9{fill: #fff;}#el_34pAh0kwN9R{fill: #fff;}#el_1or0AymVfTz{fill: #fff;}#el_irH-_CJDZsV{fill: #fff;}#el_7kSKEPm9Rvl{fill: #fff;}#el_N3HTh_b4toF{fill: #e6af78;}#el_hDqIIfvuzVn{fill: #e6af78;}#el_k17AiYH3mqD{fill: #e6af78;}#el_uam9fsWiXjc{fill: #d29b6e;}#el__0kOqE2ttSs{fill: #f0c087;}#el_jia5xHB7te0{fill: #e6af78;}#el_REOQGafE-ST{fill: #785550;}#el_A_WUlMUC-Eq{fill: #694b4b;}#el_ykQ7XLIeV4O{fill: #5a4146;}#el_LAKhHf84P8G{fill: #5a4146;}#el_lD86k3EoIy9{fill: #e6af78;}#el_fkDhUAYLqNi{fill: #b4e1fa;}#el_GrUBYjnDCq1{fill: #b4e1fa;-webkit-transform: translate(-93.07px, 29.62px) rotate(-13.2deg);transform: translate(-93.07px, 29.62px) rotate(-13.2deg);}#el_WtC2pmR7pqR{fill: #b4e1fa;-webkit-transform: translate(654.66px, 909.72px) rotate(-166.8deg);transform: translate(654.66px, 909.72px) rotate(-166.8deg);}#el_krk48VxKqEV{fill: #a0d2f0;}#el_nmg2u16QlBq{fill: #a0d2f0;}#el_d4mqVygUYZ4{fill: #a0d2f0;}#el_kP-cp4VQEZX{fill: #a0d2f0;}#el_-MBdP92g-H9{fill: #a0d2f0;}#el_-hu7rWLZuK9{fill: #5b5d6e;}#el_2V_tjp-NpAw{fill: #515262;}#el_3Pq9971Fotx{fill: #707487;}#el_pVsVWWdMETb{fill: #5b5d6e;}#el_Dj4jpagNXim{fill: none;stroke: #464655;stroke-miterlimit: 10;stroke-width: 12px;}#el_fQ35HbnLhMP{fill: #707487;-webkit-transform: translate(717.72px, 425.55px) rotate(180deg);transform: translate(717.72px, 425.55px) rotate(180deg);}#el_7xBGZAg2QI2{fill: #5b5d6e;-webkit-transform: translate(700.2px, 424.56px) rotate(180deg);transform: translate(700.2px, 424.56px) rotate(180deg);}#el_iZ0A8NBGO4_{fill: #707487;}#el_plnRsTfgI9f_an_ZjQJ3NDQS{-webkit-animation-fill-mode: forwards;animation-fill-mode: forwards;-webkit-transform: translate(9px, 0.00152587890625px) translate(-9px, -0.00152587890625px) translate(0px, 520px);transform: translate(9px, 0.00152587890625px) translate(-9px, -0.00152587890625px) translate(0px, 520px);-webkit-animation-name: kf_el_plnRsTfgI9f_an_ZjQJ3NDQS;animation-name: kf_el_plnRsTfgI9f_an_ZjQJ3NDQS;-webkit-animation-timing-function: cubic-bezier(0, 0, 1, 1);animation-timing-function: cubic-bezier(0, 0, 1, 1);}#el_yk7KLFbT0H__an_-zDuYSdV6{-webkit-animation-fill-mode: forwards;animation-fill-mode: forwards;-webkit-transform: translate(-3.5946855545043945px, 339.4767761230469px) translate(3.5946855545043945px, -339.4767761230469px) translate(0px, 520px);transform: translate(-3.5946855545043945px, 339.4767761230469px) translate(3.5946855545043945px, -339.4767761230469px) translate(0px, 520px);-webkit-animation-name: kf_el_yk7KLFbT0H__an_-zDuYSdV6;animation-name: kf_el_yk7KLFbT0H__an_-zDuYSdV6;-webkit-animation-timing-function: cubic-bezier(0, 0, 1, 1);animation-timing-function: cubic-bezier(0, 0, 1, 1);}#el_pXnv0zQmXGO_an_VCPYgb3AX{-webkit-animation-fill-mode: forwards;animation-fill-mode: forwards;-webkit-transform: translate(207px, 414.4200134277344px) translate(-207px, -414.4200134277344px) translate(0px, 520px);transform: translate(207px, 414.4200134277344px) translate(-207px, -414.4200134277344px) translate(0px, 520px);-webkit-animation-name: kf_el_pXnv0zQmXGO_an_VCPYgb3AX;animation-name: kf_el_pXnv0zQmXGO_an_VCPYgb3AX;-webkit-animation-timing-function: cubic-bezier(0, 0, 1, 1);animation-timing-function: cubic-bezier(0, 0, 1, 1);}#el_KvcjeILYKtT_an_NPrgw0vdL{-webkit-animation-fill-mode: forwards;animation-fill-mode: forwards;-webkit-transform: translate(90px, 172.4199981689453px) translate(-90px, -172.4199981689453px) translate(0px, -320px);transform: translate(90px, 172.4199981689453px) translate(-90px, -172.4199981689453px) translate(0px, -320px);-webkit-animation-name: kf_el_KvcjeILYKtT_an_NPrgw0vdL;animation-name: kf_el_KvcjeILYKtT_an_NPrgw0vdL;-webkit-animation-timing-function: cubic-bezier(0, 0, 1, 1);animation-timing-function: cubic-bezier(0, 0, 1, 1);}#el_1swmXRpciE_an_RPi0b9XSB{-webkit-transform: translate(373.6949768066406px, 311.6668167114258px) scale(0, 0) translate(-373.6949768066406px, -311.6668167114258px);transform: translate(373.6949768066406px, 311.6668167114258px) scale(0, 0) translate(-373.6949768066406px, -311.6668167114258px);}#el_1swmXRpciE_an_1tjsGN6xM{-webkit-animation-fill-mode: forwards;animation-fill-mode: forwards;-webkit-transform: translate(373.6949768066406px, 311.6668167114258px) translate(-373.6949768066406px, -311.6668167114258px) translate(-150px, 0px);transform: translate(373.6949768066406px, 311.6668167114258px) translate(-373.6949768066406px, -311.6668167114258px) translate(-150px, 0px);-webkit-animation-name: kf_el_1swmXRpciE_an_1tjsGN6xM;animation-name: kf_el_1swmXRpciE_an_1tjsGN6xM;-webkit-animation-timing-function: cubic-bezier(0, 0, 1, 1);animation-timing-function: cubic-bezier(0, 0, 1, 1);}</style><defs/><title>Recurso 4</title><g id="el_i7DqHOxMoi" data-name="Capa 2"><g id="el_pZM3zXydi2" data-name="Capa 1"><g id="el_1swmXRpciE_an_1tjsGN6xM" data-animator-group="true" data-animator-type="0"><g id="el_1swmXRpciE"><path d="M392.45,370.55l1.33,4.33c.54,1.74.8,2.6,1.34,4.33a6.79,6.79,0,0,0,4,2.14,25.72,25.72,0,0,0,6.14.55,39,39,0,0,0,4.58-.27c1.47-.15,3-.35,4.58-.62s3.25-.6,5-1,3.64-.91,5.65-1.51,3.67-1.16,5.69-1.91,3.88-1.52,5.62-2.3,3.36-1.57,4.88-2.38,2.95-1.63,4.32-2.48,2.88-1.88,4.27-2.91a49.91,49.91,0,0,0,4-3.31,41.17,41.17,0,0,0,3.76-3.91,33,33,0,0,0,3.35-4.81c-.89-1.41-1.33-2.14-2.2-3.6s-1.29-2.21-2.14-3.72a32.22,32.22,0,0,1-3.32,4.63,42.4,42.4,0,0,1-3.67,3.77c-1.27,1.14-2.56,2.19-3.9,3.18s-2.81,2-4.14,2.8-2.72,1.62-4.2,2.4-3.05,1.54-4.74,2.29-3.5,1.48-5.46,2.2-3.59,1.23-5.53,1.8-3.76,1-5.48,1.4-3.33.68-4.88.92-3,.41-4.45.53a43.6,43.6,0,0,1-4.47.19,25.68,25.68,0,0,1-5.94-.6A7.4,7.4,0,0,1,392.45,370.55Z" id="el_Wy1j_zDZkU"/><path d="M387.12,353.23c.53,1.73.8,2.59,1.33,4.33s.8,2.59,1.33,4.33a8,8,0,0,0,4.05,2.05,25.4,25.4,0,0,0,5.76.63c2.09,0,3,0,4.37-.12s2.83-.26,4.35-.48,3.09-.49,4.76-.85,3.43-.79,5.31-1.32,3.49-1.05,5.4-1.74,3.67-1.4,5.32-2.13,3.17-1.47,4.61-2.23,2.8-1.53,4.1-2.33,2.72-1.76,4-2.72,2.57-2,3.81-3.09a42.92,42.92,0,0,0,3.6-3.65,33.62,33.62,0,0,0,3.3-4.49c-.8-1.58-1.2-2.38-2-4s-1.16-2.42-1.92-4.05a34.48,34.48,0,0,1-3.31,4.37,44.19,44.19,0,0,1-3.55,3.56c-1.21,1.08-2.44,2.07-3.71,3s-2.64,1.86-3.91,2.66-2.6,1.55-4,2.3-2.89,1.47-4.5,2.18-3.34,1.42-5.2,2.09-3.44,1.17-5.27,1.69-3.55.93-5.17,1.26-3.17.61-4.66.81-2.88.35-4.26.43a42.22,42.22,0,0,1-4.29.09,25.32,25.32,0,0,1-5.58-.63A8.71,8.71,0,0,1,387.12,353.23Z" id="el_UYRuiTG2JC"/><path d="M381.79,335.9l1.33,4.33,1.33,4.33a9.86,9.86,0,0,0,4.16,1.88,26.18,26.18,0,0,0,5.42.62c1.94,0,2.87,0,4.22-.06s2.73-.21,4.19-.41,3-.44,4.56-.77,3.26-.73,5-1.23,3.35-1,5.17-1.65,3.52-1.36,5.1-2.06,3-1.43,4.41-2.17,2.68-1.49,3.93-2.27,2.59-1.69,3.83-2.61,2.44-1.89,3.64-2.95a46,46,0,0,0,3.51-3.48,37.38,37.38,0,0,0,3.33-4.27c-.71-1.66-1.07-2.52-1.77-4.22s-1-2.53-1.71-4.23a39.6,39.6,0,0,1-3.37,4.18,46.56,46.56,0,0,1-3.49,3.42c-1.18,1-2.37,2-3.58,2.9s-2.52,1.79-3.75,2.57-2.51,1.53-3.87,2.26-2.79,1.46-4.33,2.16-3.21,1.39-5,2.05-3.34,1.14-5.08,1.64-3.37.88-4.93,1.2-3.05.57-4.49.76-2.78.31-4.12.38-2.29.1-4.16.06a28.24,28.24,0,0,1-5.28-.59,11.21,11.21,0,0,1-4.23-1.77" id="el_RphtHs6rYW"/><path d="M376.46,318.58c.53,1.73.79,2.6,1.33,4.33l1.33,4.33a12.72,12.72,0,0,0,4.33,1.65,28.2,28.2,0,0,0,5.16.57c1.8,0,2.8,0,4.12,0s2.65-.19,4.07-.38,2.89-.42,4.43-.73,3.13-.69,4.83-1.17,3.25-1,5-1.63,3.4-1.34,4.93-2,2.94-1.41,4.28-2.14,2.6-1.48,3.82-2.26,2.49-1.64,3.69-2.53,2.37-1.83,3.54-2.85,2.32-2.13,3.48-3.35a44,44,0,0,0,3.43-4.1c-.63-1.68-.93-2.51-1.53-4.18s-.89-2.49-1.46-4.14a49.11,49.11,0,0,1-3.51,4c-1.16,1.19-2.33,2.28-3.49,3.28s-2.33,1.92-3.52,2.79-2.43,1.72-3.64,2.49-2.47,1.51-3.79,2.23-2.73,1.44-4.24,2.13-3.13,1.37-4.88,2-3.29,1.14-5,1.61-3.25.84-4.76,1.14-3,.53-4.38.7-2.72.29-4,.35-2.36.07-4.1,0a29.36,29.36,0,0,1-5.05-.54,15.34,15.34,0,0,1-4.44-1.55" id="el_NjjQmHjdGd"/><path d="M371.12,301.25l1.33,4.33c.54,1.74.8,2.6,1.34,4.33a18.59,18.59,0,0,0,4.58,1.47,32.45,32.45,0,0,0,5,.54c1.69.06,2.79.06,4.1,0s2.61-.15,4-.31,2.85-.37,4.35-.66,3.05-.64,4.7-1.09,3.2-.93,4.94-1.56c2-.74,3.88-1.52,5.59-2.32s3.28-1.62,4.77-2.47,2.93-1.74,4.32-2.67,2.75-1.93,4.11-3,2.72-2.25,4.1-3.57a53.74,53.74,0,0,0,4.2-4.45c-.64-1.95-.95-2.91-1.55-4.8s-.88-2.83-1.44-4.65c-1.46,1.67-2.89,3.13-4.28,4.45s-2.75,2.49-4.1,3.58-2.69,2.08-4.07,3-2.8,1.87-4.28,2.74-3,1.71-4.72,2.53-3.53,1.64-5.53,2.4-3.84,1.34-5.7,1.85-3.59.89-5.28,1.19-3.35.52-4.87.65-3,.21-4.59.2a40.49,40.49,0,0,1-5.5-.34,23.49,23.49,0,0,1-5.5-1.39" id="el_2_Fv7EAny4"/><path d="M365.79,283.92c.53,1.74.8,2.6,1.33,4.33l1.34,4.34a29.25,29.25,0,0,0,5.64,1.24,44.07,44.07,0,0,0,5.41.31c1.57,0,3.08-.07,4.6-.21s3.19-.35,4.86-.65,3.41-.68,5.24-1.19a58.14,58.14,0,0,0,5.66-1.86c2-.76,3.84-1.58,5.52-2.41s3.23-1.67,4.7-2.55,2.92-1.79,4.28-2.73,2.7-1.92,4.05-3,2.72-2.23,4.13-3.53,2.89-2.74,4.41-4.38c-.48-1.66-.71-2.47-1.14-4s-.64-2.32-1-3.78c-1.59,1.58-3.1,3-4.55,4.22s-2.84,2.37-4.2,3.41-2.71,2-4.08,2.89-2.81,1.81-4.29,2.66-3,1.68-4.73,2.49-3.53,1.6-5.54,2.34-3.85,1.3-5.67,1.77-3.54.84-5.22,1.11-3.35.47-4.88.58-3.05.16-4.64.15a47.74,47.74,0,0,1-5.36-.35,37.21,37.21,0,0,1-5.83-1.18" id="el_1NzXJbxZB5"/><path d="M389.78,361.89c.54,1.73.8,2.6,1.34,4.33l1.33,4.33a7.4,7.4,0,0,0,4,2.12,25.68,25.68,0,0,0,5.94.6,43.92,43.92,0,0,0,4.47-.18c1.43-.13,2.9-.3,4.45-.54s3.17-.54,4.88-.92,3.53-.83,5.48-1.4,3.57-1.09,5.53-1.8,3.77-1.45,5.46-2.2,3.26-1.51,4.74-2.29,2.87-1.57,4.2-2.4,2.8-1.8,4.14-2.8a50.2,50.2,0,0,0,3.9-3.18,42.4,42.4,0,0,0,3.67-3.77,32.22,32.22,0,0,0,3.32-4.63c-.85-1.51-1.27-2.28-2.09-3.82s-1.23-2.34-2-3.92a33.62,33.62,0,0,1-3.3,4.49,42.92,42.92,0,0,1-3.6,3.65c-1.24,1.11-2.5,2.13-3.81,3.09s-2.71,1.91-4,2.72-2.66,1.58-4.1,2.34-3,1.5-4.61,2.22-3.41,1.45-5.32,2.13-3.51,1.2-5.4,1.74-3.64,1-5.31,1.32-3.25.63-4.76.85-2.95.38-4.35.48-2.28.14-4.37.12a25.4,25.4,0,0,1-5.76-.63A8,8,0,0,1,389.78,361.89Z" id="el_sx63ExRYzb"/><path d="M384.45,344.56c.54,1.74.8,2.6,1.33,4.34s.81,2.59,1.34,4.33a8.71,8.71,0,0,0,4.09,2,25.34,25.34,0,0,0,5.59.63c2,0,2.91,0,4.28-.08s2.77-.23,4.26-.44,3-.47,4.65-.8,3.35-.76,5.18-1.27,3.4-1,5.27-1.69,3.59-1.37,5.2-2.08,3.1-1.45,4.5-2.19,2.73-1.51,4-2.3,2.65-1.72,3.91-2.66,2.5-1.93,3.71-3a42.61,42.61,0,0,0,3.55-3.56,34.48,34.48,0,0,0,3.31-4.37c-.75-1.63-1.13-2.45-1.86-4.1s-1.1-2.48-1.81-4.15a37.38,37.38,0,0,1-3.33,4.27,46,46,0,0,1-3.51,3.48c-1.19,1.06-2.41,2-3.64,2.95s-2.58,1.82-3.83,2.61-2.55,1.53-3.93,2.27-2.84,1.46-4.41,2.17-3.27,1.39-5.1,2.06-3.38,1.15-5.17,1.65-3.45.9-5,1.23-3.1.58-4.56.77-2.83.33-4.19.41-2.28.1-4.22.06a26.18,26.18,0,0,1-5.42-.62,9.86,9.86,0,0,1-4.16-1.88" id="el_rtAShx5cdk"/><path d="M379.12,327.24l1.33,4.33c.54,1.73.8,2.6,1.34,4.33a11.21,11.21,0,0,0,4.23,1.77,28.15,28.15,0,0,0,5.28.59c1.87,0,2.83,0,4.16-.06s2.68-.2,4.12-.38,2.93-.44,4.49-.76,3.19-.71,4.93-1.2,3.29-1,5.08-1.64,3.46-1.35,5-2.05,3-1.42,4.33-2.16,2.64-1.48,3.87-2.26,2.53-1.67,3.75-2.57,2.4-1.86,3.58-2.9a46.56,46.56,0,0,0,3.49-3.42,40.91,40.91,0,0,0,3.37-4.18c-.67-1.69-1-2.54-1.65-4.22s-1-2.54-1.59-4.22a43.9,43.9,0,0,1-3.42,4.1c-1.16,1.22-2.32,2.33-3.49,3.35s-2.34,2-3.53,2.85-2.48,1.76-3.69,2.53-2.49,1.53-3.83,2.26-2.75,1.44-4.27,2.14-3.17,1.39-4.93,2-3.32,1.14-5,1.63-3.31.86-4.84,1.17-3,.55-4.43.73-2.74.31-4.07.37-2.32.09-4.12,0a28.3,28.3,0,0,1-5.16-.57,12.72,12.72,0,0,1-4.33-1.65" id="el_6cMggoZu44"/><path d="M373.79,309.91c.53,1.74.79,2.6,1.33,4.33l1.33,4.33a15.51,15.51,0,0,0,4.45,1.55,29.46,29.46,0,0,0,5.05.55c1.74.05,2.79,0,4.1,0s2.62-.17,4-.34,2.86-.41,4.38-.71,3.09-.67,4.76-1.14,3.21-1,5-1.6,3.38-1.33,4.88-2,2.91-1.4,4.24-2.12,2.58-1.47,3.79-2.24,2.46-1.62,3.64-2.49,2.35-1.79,3.52-2.79,2.33-2.08,3.49-3.28a50.89,50.89,0,0,0,3.51-4c-.57-1.65-.85-2.46-1.4-4.08s-.69-2.07-1.33-4a53.74,53.74,0,0,1-4.2,4.45c-1.38,1.32-2.74,2.49-4.1,3.57s-2.72,2.07-4.11,3-2.84,1.83-4.32,2.67-3.06,1.67-4.77,2.47-3.56,1.58-5.59,2.32c-1.74.63-3.29,1.11-4.94,1.56s-3.2.8-4.7,1.09-2.93.5-4.35.66-2.71.26-4,.31-2.41.05-4.1,0a32.45,32.45,0,0,1-5-.54,18.59,18.59,0,0,1-4.58-1.47" id="el_aZ4TZoZ9rE"/><path d="M368.46,292.59c.53,1.73.79,2.6,1.33,4.33l1.33,4.33a23.49,23.49,0,0,0,5.5,1.39,40.49,40.49,0,0,0,5.5.34c1.55,0,3.06-.06,4.59-.2s3.19-.35,4.87-.65,3.43-.68,5.28-1.19,3.69-1.09,5.7-1.85,3.84-1.57,5.53-2.4,3.25-1.67,4.72-2.53,2.91-1.79,4.28-2.74,2.72-1.94,4.07-3,2.71-2.27,4.1-3.58,2.82-2.78,4.28-4.45c-.56-1.83-.83-2.72-1.34-4.47s-.77-2.6-1.24-4.26c-1.52,1.64-3,3.08-4.41,4.38s-2.77,2.45-4.13,3.53-2.69,2.06-4.05,3-2.8,1.86-4.28,2.73-3,1.72-4.7,2.55-3.52,1.65-5.52,2.41a58.14,58.14,0,0,1-5.66,1.86c-1.83.51-3.56.89-5.24,1.19s-3.34.51-4.86.65-3,.2-4.6.21a44.07,44.07,0,0,1-5.41-.31,29.25,29.25,0,0,1-5.64-1.24" id="el__peELRX2jX"/><path d="M363.12,275.27c.54,1.73.8,2.59,1.34,4.32s.79,2.6,1.33,4.33a36.1,36.1,0,0,0,5.83,1.18,47.72,47.72,0,0,0,5.35.35c1.6,0,3.13,0,4.65-.15s3.2-.3,4.88-.58,3.4-.63,5.22-1.11,3.67-1,5.67-1.77,3.85-1.54,5.54-2.34,3.25-1.64,4.73-2.49,2.93-1.75,4.29-2.66,2.71-1.86,4.08-2.89,2.75-2.16,4.2-3.41,3-2.64,4.55-4.22c-.39-1.45-.7-2.63-1.3-5s-.86-3.41-1.32-5.29c-1.42,1.37-2.75,2.6-4,3.73s-2.51,2.15-3.7,3.11-2.34,1.84-3.49,2.68-2.34,1.66-3.55,2.45-2.46,1.56-3.76,2.32-2.68,1.49-4.15,2.22-3.07,1.44-4.78,2.12a59.48,59.48,0,0,1-5.65,1.94c-1.79.51-3.5.91-5.17,1.22s-3.35.55-4.86.7-3,.24-4.65.26a51.16,51.16,0,0,1-5.27-.18,48.88,48.88,0,0,1-6-.88" id="el_W5WJq28AAI"/><path d="M360.46,266.6l1.33,4.33c.54,1.74.8,2.6,1.33,4.34a48.88,48.88,0,0,0,6,.88c1.87.16,3.66.21,5.27.19s3.13-.12,4.65-.27,3.2-.38,4.86-.7,3.38-.71,5.17-1.22a59.48,59.48,0,0,0,5.65-1.94q2.57-1,4.78-2.12c1.47-.73,2.84-1.47,4.15-2.22s2.55-1.53,3.76-2.32,2.39-1.61,3.55-2.45,2.31-1.73,3.49-2.68,2.42-2,3.7-3.11,2.61-2.36,4-3.73c-.45-1.89-.64-2.71-1-4.08s-.42-1.92-.58-2.71c-1.5,1.3-2.9,2.45-4.23,3.51s-2.59,2-3.8,2.93-2.4,1.73-3.57,2.52-2.36,1.56-3.6,2.31-2.5,1.48-3.83,2.19-2.72,1.42-4.21,2.1-3.11,1.35-4.84,2-3.38,1.14-4.94,1.56-3.07.75-4.54,1-2.89.47-4.32.62-2.71.24-4.06.28-2.72,0-4.18,0-3-.17-4.65-.36-3.44-.45-5.4-.83" id="el_4TpMzfI3acs"/><path d="M379.19,294.62l-12.59,3.6,27.51,77.51c-.65-7.52,6.8-13.38,3.47-22.71,0,0-9.2-29.93-18.39-58.4" id="el_MnONsRHZaV7"/><path d="M395.22,344.15a12.38,12.38,0,0,0-4.44-3.24,19.45,19.45,0,0,0-5.41-1.38,34.62,34.62,0,0,0-5.13-.2c-1.5.05-2.95.18-4.47.38s-3.09.47-4.76.82-3.41.78-5.28,1.31-3.67,1.1-5.41,1.69-3.69,1.32-5.64,2.09-3.8,1.56-5.57,2.35-3.47,1.6-5.1,2.4-3.29,1.66-4.74,2.42-2.88,1.55-4.3,2.36-2.84,1.63-4.28,2.51-2.92,1.78-4.44,2.76-3.09,2-4.73,3.14-3.35,2.34-5.15,3.67c.07,1.91.1,2.88.14,4.84s.05,3,.06,5c1.61-1.2,3.15-2.32,4.65-3.36s2.93-2,4.33-2.95,2.75-1.79,4.08-2.63,2.64-1.63,3.94-2.4,2.6-1.52,3.9-2.25,2.6-1.45,4-2.22,2.93-1.54,4.47-2.3,3.13-1.52,4.78-2.28,3.39-1.52,5.19-2.26,3.5-1.41,5.08-2,3.06-1.1,4.81-1.66,3.41-1,5-1.45,3.09-.75,4.54-1,2.85-.51,4.21-.68,2.68-.28,4-.32a33.82,33.82,0,0,1,5,.23,18.28,18.28,0,0,1,4.87,1.29,11.55,11.55,0,0,1,4,2.81l-1.1-3.66-1.15-3.79" id="el_t28qXRtYF28"/><path d="M390.17,327.91A13.22,13.22,0,0,0,386,324.5a17.7,17.7,0,0,0-5-1.55,31.87,31.87,0,0,0-5-.41,36.26,36.26,0,0,0-4.24.21c-1.42.15-2.89.36-4.45.66s-3.21.67-5,1.15-3.51,1-5.24,1.58-3.8,1.35-5.58,2.06-3.49,1.44-5.13,2.17-3.2,1.49-4.73,2.24-3,1.56-4.42,2.3-2.71,1.49-4.06,2.27-2.7,1.59-4.08,2.44-2.8,1.76-4.27,2.73-3,2-4.59,3.14-3.29,2.35-5.07,3.71c.19,1.7.28,2.56.44,4.31s.24,2.64.37,4.44c1.79-1.33,3.48-2.54,5.1-3.66s3.17-2.15,4.66-3.12,2.94-1.86,4.35-2.71,2.79-1.67,4.18-2.45,2.77-1.55,4.17-2.29,3-1.56,4.58-2.33,3.21-1.54,4.91-2.29,3.48-1.51,5.35-2.24,3.86-1.46,5.6-2,3.5-1.12,5.33-1.61,3.51-.89,5.12-1.2,3.14-.55,4.6-.72a41.63,41.63,0,0,1,4.35-.27,33.78,33.78,0,0,1,5.08.34,18.48,18.48,0,0,1,5.22,1.49,12.78,12.78,0,0,1,4.32,3.35c-.51-1.63-.76-2.45-1.29-4.11s-.78-2.5-1.31-4.18" id="el_G_7O60gn-2G"/><path d="M384.83,311.15a13.85,13.85,0,0,0-4.05-3.4,16.86,16.86,0,0,0-4.7-1.55,28.18,28.18,0,0,0-5-.48,31.94,31.94,0,0,0-4.07.2c-1.32.14-2.71.35-4.18.64s-3,.67-4.74,1.14-3.39,1-5.12,1.64-3.94,1.52-5.58,2.22-3.22,1.44-4.74,2.18-3,1.49-4.39,2.25-2.85,1.56-4.15,2.31-2.58,1.53-3.87,2.33-2.59,1.65-3.93,2.53-2.7,1.83-4.13,2.84-2.93,2.11-4.51,3.3-3.25,2.5-5,3.94c.28,1.5.41,2.26.67,3.8s.39,2.33.62,3.93c1.78-1.4,3.45-2.66,5-3.82s3.1-2.23,4.55-3.22,2.83-1.9,4.18-2.77,2.69-1.69,4-2.48,2.63-1.55,4-2.3,2.81-1.54,4.28-2.3,3-1.5,4.55-2.23,3.21-1.46,4.92-2.17,3.85-1.54,5.57-2.13,3.44-1.13,5.18-1.61,3.33-.84,4.84-1.13,2.95-.51,4.31-.65a34.05,34.05,0,0,1,4.15-.2,31.11,31.11,0,0,1,5,.45,17.87,17.87,0,0,1,4.86,1.56,13.61,13.61,0,0,1,4.12,3.41c-.55-1.71-.79-2.48-1.32-4.12s-.79-2.47-1.32-4.11" id="el_x5u6AT8ZUCI"/><path d="M379.57,294.92a15.28,15.28,0,0,0-4-3.54,16.61,16.61,0,0,0-4.49-1.69,26.89,26.89,0,0,0-5-.66,31.81,31.81,0,0,0-4,.07c-1.26.1-2.59.26-4,.51s-2.94.57-4.6,1-3.34.94-5.11,1.55-4.17,1.58-5.72,2.24-3,1.33-4.47,2-2.83,1.4-4.18,2.12-2.72,1.48-4,2.22-2.52,1.48-3.79,2.27-2.55,1.62-3.88,2.5-2.68,1.82-4.11,2.83-2.94,2.12-4.54,3.33-3.3,2.54-5.13,4c.51,1.75.75,2.65,1.24,4.49s.71,2.79,1.16,4.73c1.8-1.47,3.47-2.8,5.06-4s3.07-2.31,4.5-3.34,2.78-2,4.1-2.87,2.61-1.73,3.88-2.54,2.54-1.58,3.81-2.34,2.67-1.54,4-2.29,2.8-1.5,4.27-2.22,3-1.45,4.58-2.14,3.88-1.64,5.62-2.27,3.43-1.17,5.1-1.63,3.2-.83,4.64-1.11,2.79-.47,4.08-.6a29.14,29.14,0,0,1,4-.17,27.86,27.86,0,0,1,5,.54,16.53,16.53,0,0,1,4.57,1.58,14.48,14.48,0,0,1,4,3.44c-.53-1.63-.79-2.44-1.32-4.05s-.78-2.41-1.3-4" id="el_dF9rqYZp9aW"/><path d="M374.14,278.35a17.65,17.65,0,0,0-4.05-3.52,16.92,16.92,0,0,0-4.35-1.68,26.55,26.55,0,0,0-5.12-.72,30.84,30.84,0,0,0-4,.07c-1.23.1-2.53.26-3.92.5s-2.88.57-4.51,1-3.34,1-5.18,1.63-4.45,1.74-5.93,2.4-2.9,1.34-4.28,2-2.73,1.41-4.05,2.14-2.63,1.49-3.88,2.25-2.49,1.53-3.76,2.35-2.55,1.67-3.88,2.59-2.71,1.89-4.17,2.95-3,2.22-4.63,3.5-3.4,2.69-5.3,4.26c.56,1.38.84,2.09,1.39,3.56s.83,2.22,1.37,3.78c1.88-1.5,3.6-2.85,5.23-4.07s3.14-2.33,4.59-3.35,2.81-2,4.14-2.84,2.62-1.7,3.89-2.49,2.52-1.53,3.78-2.26,2.6-1.46,3.94-2.17,2.7-1.4,4.12-2.08,2.87-1.33,4.38-2,4-1.64,5.84-2.25,3.5-1.12,5.15-1.53,3.14-.73,4.55-1,2.73-.37,4-.44a30.55,30.55,0,0,1,4,0,26.84,26.84,0,0,1,5.07.74,14.48,14.48,0,0,1,8.46,5.35c-.5-1.52-.75-2.3-1.37-4.18s-.92-2.8-1.51-4.6" id="el_cyZcOOFGYep"/><path d="M368.82,262.27a24.37,24.37,0,0,0-4.27-3.56,18.11,18.11,0,0,0-4.37-1.73,26.85,26.85,0,0,0-5.38-.81,30.39,30.39,0,0,0-4.12,0,37.54,37.54,0,0,0-3.95.44c-1.41.23-2.93.54-4.59,1s-3.44,1-5.4,1.63-4.85,1.88-6.32,2.52-2.9,1.31-4.28,2-2.73,1.39-4.06,2.11-2.64,1.47-3.93,2.23-2.57,1.55-3.88,2.38-2.65,1.69-4,2.63-2.83,1.94-4.36,3-3.15,2.29-4.89,3.62-3.62,2.79-5.66,4.44c.84,1.41,1.27,2.17,2.14,3.8s1.32,2.5,2.21,4.34c2-1.63,3.76-3.08,5.44-4.4s3.24-2.5,4.72-3.59,2.88-2.1,4.23-3,2.65-1.81,3.92-2.65,2.54-1.63,3.79-2.4,2.56-1.54,3.87-2.28,2.64-1.46,4-2.17,2.79-1.4,4.25-2.06,4.2-1.83,6.08-2.51,3.61-1.23,5.25-1.68,3.12-.77,4.51-1,2.68-.41,3.9-.51a27.65,27.65,0,0,1,4-.08,25.18,25.18,0,0,1,5.21.72,17.13,17.13,0,0,1,4.32,1.66,20.15,20.15,0,0,1,4.12,3.49l-1.29-3.9c-.5-1.51-.75-2.23-1.2-3.62" id="el_8ADA1swsSEa"/><path d="M392.77,336.2a12.78,12.78,0,0,0-4.32-3.35,18.48,18.48,0,0,0-5.22-1.49,33.78,33.78,0,0,0-5.08-.34,41.63,41.63,0,0,0-4.35.27c-1.46.17-3,.4-4.6.72s-3.3.7-5.12,1.2-3.6,1-5.33,1.61-3.74,1.31-5.6,2-3.65,1.48-5.35,2.23-3.33,1.52-4.91,2.3-3.17,1.59-4.58,2.33-2.79,1.5-4.17,2.29-2.77,1.59-4.18,2.45-2.85,1.75-4.35,2.71-3,2-4.66,3.12-3.31,2.33-5.1,3.66c.14,1.8.2,2.72.3,4.58s.15,2.79.22,4.7c1.8-1.33,3.51-2.54,5.15-3.67s3.21-2.17,4.73-3.14,3-1.89,4.44-2.76,2.86-1.7,4.28-2.51,2.85-1.59,4.3-2.35,3.1-1.62,4.74-2.43,3.33-1.6,5.1-2.4,3.63-1.58,5.57-2.35,3.89-1.49,5.64-2.09,3.54-1.16,5.41-1.69,3.62-1,5.28-1.31,3.24-.62,4.76-.82,3-.33,4.47-.38a34.72,34.72,0,0,1,5.13.2,19.12,19.12,0,0,1,5.41,1.39,12.24,12.24,0,0,1,4.44,3.23c-.47-1.55-.71-2.33-1.2-3.92s-.74-2.4-1.25-4" id="el_Nk0gCmJWqWz"/><path d="M387.47,319.38a13.74,13.74,0,0,0-4.12-3.41,17.53,17.53,0,0,0-4.86-1.56,31.11,31.11,0,0,0-5-.45,34.05,34.05,0,0,0-4.15.2c-1.36.14-2.79.36-4.31.65s-3.11.66-4.85,1.13-3.45,1-5.17,1.61-3.87,1.43-5.57,2.13-3.35,1.43-4.92,2.17-3.09,1.48-4.56,2.23-2.94,1.56-4.27,2.3-2.64,1.51-4,2.3-2.64,1.61-4,2.48-2.74,1.78-4.19,2.77S320.6,336,319,337.14s-3.26,2.43-5,3.83c.24,1.59.36,2.4.57,4s.31,2.48.5,4.18c1.78-1.36,3.47-2.58,5.07-3.72s3.12-2.17,4.59-3.14,2.88-1.86,4.27-2.72,2.73-1.66,4.08-2.44,2.7-1.54,4.06-2.27,2.9-1.54,4.42-2.3,3.09-1.5,4.73-2.24,3.34-1.46,5.13-2.17,3.85-1.49,5.58-2.06,3.47-1.11,5.24-1.59,3.43-.85,5-1.14,3-.51,4.45-.66a36.21,36.21,0,0,1,4.24-.22,32,32,0,0,1,5,.42,17.8,17.8,0,0,1,5,1.55,13.09,13.09,0,0,1,4.22,3.41l-1.34-4.25c-.54-1.7-.82-2.56-1.36-4.28" id="el_eTHrTB3Jj3L"/><path d="M382.19,303a14.3,14.3,0,0,0-4-3.43A16.18,16.18,0,0,0,373.6,298a27.65,27.65,0,0,0-5-.54,29.14,29.14,0,0,0-4,.17c-1.29.13-2.64.32-4.08.6s-3,.64-4.64,1.11-3.36,1-5.1,1.63-4,1.57-5.62,2.27-3.11,1.41-4.58,2.14-2.89,1.46-4.27,2.22-2.77,1.54-4,2.29-2.53,1.53-3.81,2.34-2.55,1.65-3.88,2.54-2.68,1.84-4.1,2.87-2.92,2.13-4.5,3.34-3.26,2.55-5.06,4c.45,1.94.72,3.18,1,4.63s.44,2.17.72,3.66c1.78-1.44,3.45-2.74,5-3.94s3.07-2.28,4.51-3.3,2.8-1.95,4.13-2.84,2.64-1.72,3.93-2.53,2.57-1.57,3.87-2.33,2.73-1.55,4.15-2.31,2.88-1.52,4.39-2.26,3.09-1.46,4.74-2.17,3.86-1.6,5.58-2.22,3.43-1.16,5.12-1.64,3.26-.85,4.74-1.14,2.86-.5,4.18-.64a31.94,31.94,0,0,1,4.07-.2,29.11,29.11,0,0,1,5,.47,17.2,17.2,0,0,1,4.7,1.56,13.85,13.85,0,0,1,4.05,3.4c-.53-1.65-.79-2.47-1.32-4.1s-.8-2.46-1.32-4.08" id="el_HBOTGd2DB9H"/><path d="M377,287.13a14.48,14.48,0,0,0-8.46-5.35,26.84,26.84,0,0,0-5.07-.74,30.56,30.56,0,0,0-4,0,37.91,37.91,0,0,0-4,.45c-1.41.22-2.91.53-4.55.95s-3.35.92-5.15,1.53-4.33,1.62-5.84,2.25-3,1.29-4.38,2-2.78,1.37-4.12,2.08-2.68,1.45-3.94,2.17-2.51,1.48-3.78,2.26-2.56,1.61-3.89,2.49-2.7,1.82-4.14,2.84-3,2.12-4.59,3.35-3.36,2.57-5.23,4.07c.55,1.56.82,2.37,1.34,4s.79,2.5,1.29,4.25c1.83-1.49,3.53-2.82,5.13-4s3.1-2.31,4.53-3.32,2.8-1.95,4.12-2.83,2.61-1.71,3.88-2.5,2.52-1.55,3.78-2.28,2.63-1.49,4-2.21,2.74-1.44,4.18-2.13,2.92-1.37,4.47-2,4-1.62,5.72-2.23,3.46-1.13,5.11-1.56,3.17-.76,4.6-1,2.75-.41,4-.5a29.85,29.85,0,0,1,4-.08,28.8,28.8,0,0,1,5,.66,17,17,0,0,1,4.49,1.69,15.28,15.28,0,0,1,4,3.54c-.52-1.58-.77-2.37-1.28-3.93s-.77-2.33-1.27-3.85" id="el_fBwTlhPsnBx"/><path d="M371.31,269.79a20.15,20.15,0,0,0-4.12-3.49,17.52,17.52,0,0,0-4.32-1.67,26.72,26.72,0,0,0-5.21-.72,28.92,28.92,0,0,0-4,.09,37.73,37.73,0,0,0-3.9.51c-1.39.25-2.88.58-4.51,1s-3.37,1-5.25,1.68-4.63,1.84-6.08,2.5-2.87,1.36-4.24,2.07-2.71,1.43-4,2.17-2.61,1.51-3.87,2.28-2.51,1.56-3.78,2.4-2.58,1.71-3.93,2.65-2.75,1.94-4.23,3-3,2.27-4.72,3.59-3.48,2.77-5.44,4.4c.9,1.85,1.51,3.2,2.07,4.48s.85,2,1.41,3.33c1.9-1.57,3.66-3,5.3-4.26s3.18-2.43,4.63-3.5,2.84-2,4.17-2.95,2.62-1.77,3.88-2.59,2.51-1.6,3.76-2.35,2.57-1.52,3.88-2.25,2.66-1.44,4.05-2.14,2.8-1.38,4.28-2,4.1-1.75,5.93-2.4,3.54-1.19,5.18-1.63,3.12-.76,4.51-1,2.69-.4,3.92-.5a29.34,29.34,0,0,1,4-.06,25.79,25.79,0,0,1,5.12.71,16.92,16.92,0,0,1,4.35,1.68,17.87,17.87,0,0,1,4.05,3.52c-.59-1.8-.89-2.68-1.45-4.39s-.84-2.55-1.38-4.17" id="el_64qW52QHIXk"/><path d="M365.83,253.34a28.56,28.56,0,0,0-4.35-3.38,19.07,19.07,0,0,0-4.35-1.57,26.78,26.78,0,0,0-5.48-.7,28.6,28.6,0,0,0-4.17.16c-1.23.12-2.54.3-4,.58s-2.93.62-4.61,1.1-3.47,1.07-5.47,1.82-5,2.07-6.5,2.78-2.86,1.43-4.24,2.17-2.72,1.5-4,2.27-2.63,1.58-3.93,2.4-2.59,1.66-3.92,2.54-2.68,1.82-4.09,2.82-2.88,2.07-4.44,3.24-3.2,2.44-5,3.86-3.7,3-5.8,4.73c.69,1,1.06,1.54,1.83,2.74s1.17,1.86,2,3.27c2-1.66,3.92-3.12,5.66-4.44s3.36-2.52,4.89-3.62,3-2.1,4.36-3,2.73-1.81,4-2.63,2.59-1.62,3.88-2.38,2.6-1.51,3.93-2.23,2.67-1.42,4.06-2.11,2.81-1.35,4.28-2,4.37-1.83,6.32-2.52,3.73-1.21,5.4-1.63,3.17-.73,4.59-1,2.71-.37,3.95-.45a32.45,32.45,0,0,1,4.12,0,26.16,26.16,0,0,1,5.38.81,18.53,18.53,0,0,1,4.37,1.73,24.37,24.37,0,0,1,4.27,3.56l-1.1-3.29-.82-2.44-1.07-3.2" id="el__D_OjASNsPL"/><path d="M363.79,247.25a42.4,42.4,0,0,0-4.58-3.43,22.25,22.25,0,0,0-4.48-1.61,28.3,28.3,0,0,0-5.72-.76,31.89,31.89,0,0,0-4.32.11c-1.28.11-2.62.28-4.08.54s-3,.6-4.74,1.06-3.6,1.05-5.7,1.81-5.31,2.12-6.81,2.81-3,1.4-4.38,2.12-2.8,1.48-4.16,2.24-2.71,1.55-4.06,2.36-2.7,1.66-4.08,2.55-2.79,1.82-4.26,2.83-3,2.08-4.64,3.25-3.36,2.47-5.23,3.9-3.9,3-6.11,4.8a21.33,21.33,0,0,1,1.59,1.79c.61.72,1.19,1.45,1.82,2.28s1.29,1.76,1.64,2.26c2.1-1.76,4-3.32,5.8-4.73s3.43-2.69,5-3.86,3-2.24,4.44-3.24,2.76-1.93,4.09-2.82,2.62-1.73,3.92-2.54,2.61-1.62,3.93-2.4,2.67-1.53,4-2.27,2.79-1.47,4.24-2.17,4.49-2,6.5-2.78,3.81-1.34,5.48-1.82,3.18-.83,4.6-1.1,2.72-.46,4-.58a28.6,28.6,0,0,1,4.17-.16,26.78,26.78,0,0,1,5.48.7,19.56,19.56,0,0,1,4.35,1.56,29.13,29.13,0,0,1,4.35,3.39c-.78-2.32-1.09-3.25-1.5-4.5Z" id="el_Hao2pK3dGH8"/><path d="M310.94,325c1.81-1.48,3.47-2.8,5-4s3-2.29,4.43-3.3,2.74-1.95,4.06-2.84,2.59-1.72,3.88-2.54,2.58-1.62,3.91-2.41,2.8-1.62,4.3-2.43,3.06-1.63,4.71-2.43,2.77-1.32,4.61-2.12,3.52-1.45,5.08-2,3.08-1.05,4.64-1.5,3-.8,4.49-1.1,2.85-.51,4.23-.66a29.88,29.88,0,0,1,4.46-.2,27.4,27.4,0,0,1,5.88.78c-.59-1.95-1.14-3.72-1.65-5.37s-1-3.17-1.45-4.62-.91-2.83-1.34-4.19-.88-2.71-1.33-4.09-1.11-3.39-1.7-5.18-1.21-3.65-1.86-5.6c-.78-2.34-1.54-4.52-2.19-6.39s-1.23-3.5-1.77-5-1-2.88-1.51-4.19-1.72-5.06-2.59-7.3-1.5-3.75-1.49-3.76a27.31,27.31,0,0,0-6.59-1,30.31,30.31,0,0,0-4.81.13c-1.38.13-2.77.32-4.23.59s-3,.62-4.59,1.06-3.34,1-5.22,1.67-3.93,1.49-6.23,2.53-2.9,1.34-4.49,2.14c-1.38.7-2.73,1.42-4,2.13s-2.56,1.45-3.8,2.18-2.47,1.49-3.69,2.26-2.44,1.55-3.68,2.38-2.5,1.69-3.82,2.61-2.69,1.89-4.14,3-3,2.21-4.64,3.49-3.44,2.67-5.38,4.24c0,0,1.1,1.12,2.6,3s2.56,3.46,3.22,4.45,1.34,2,2.05,3.17,1.43,2.38,2.2,3.77,1.61,2.94,2.51,4.73,2.06,4.33,2.72,5.83,1.26,2.95,1.83,4.36,1.08,2.78,1.58,4.15,1,2.73,1.44,4.14.93,2.85,1.39,4.4.95,3.2,1.44,5,1,3.82,1.52,6.08" id="el_UleBNpOxYN7"/><path d="M296.58,270.81c.55.51,1.07,1.12,1.36,1.31l.75.51.94-.74.94-.71-.47,1.06-.48,1.09c.31.24.47.37.78.63s.46.36.76.59l-1.05.08-1.07.06c-.19.44-.29.67-.48,1.09s-.29.65-.48,1.08c-.08-.41-.11-.59-.19-1s-.11-.63-.18-1c-.43,0-.64.07-1.07.13l-1.08.17,1-.78,1-.76c-.06-.39-.09-.59-.15-1A11.58,11.58,0,0,0,296.58,270.81Z" id="el_K8kq4ntXRmK"/><path d="M301.41,278.8c.33.28.49.42.81.72l.81.77.92-.69.91-.67-.41,1.17c-.17.47-.25.71-.42,1.19.33.33.5.51.82.86s.5.52.83.89c-.42-.06-.64-.09-1.07-.13l-1.08-.11-.4,1.25c-.17.5-.25.75-.41,1.26-.11-.53-.16-.8-.27-1.32s-.16-.78-.26-1.29l-1.09-.06-1.1,0,.95-.73.93-.72c-.1-.48-.14-.72-.24-1.2S301.5,279.25,301.41,278.8Z" id="el_8iFgmnMiNgD"/><path d="M306.22,288.43l.84,1.05c.33.43.5.65.83,1.1l.89-.69.87-.68a5.52,5.52,0,0,1-.46,1.15l-.49,1.1.63.7.63.71-.93,0h-.94c-.2.45-.3.68-.49,1.13l-.5,1.13c0-.45-.05-.67-.09-1.12s-.05-.67-.09-1.12l-.94,0a2.75,2.75,0,0,1-1,0l.91-.73.89-.71c-.12-.62-.18-.93-.29-1.53S306.33,289,306.22,288.43Z" id="el_cbTlwHm79Dx"/><path d="M309.83,297.39c.25.3.38.46.63.78s.38.47.63.8l.87-.65.87-.64-.48,1.15c-.19.46-.29.69-.49,1.16l.61.81.62.83-.92-.12-.92-.1c-.19.46-.29.69-.49,1.16l-.5,1.18c0-.5-.05-.74-.08-1.23s0-.73-.07-1.22l-.94-.09-.94-.07.89-.68.89-.68c0-.48-.06-.72-.09-1.2S309.87,297.86,309.83,297.39Z" id="el_dae4ZPE3pAf"/><path d="M312.9,306.52l.61.9c.23.36.36.55.59.92l.86-.64.86-.62c-.2.48-.3.72-.49,1.2l-.5,1.22.59.95c.24.39.35.58.58,1l-.89-.21-.89-.2-.5,1.24-.5,1.26c0-.55,0-.83-.06-1.37l-.05-1.36-.91-.16-.9-.16.86-.67c.35-.27.53-.39.87-.66,0-.53,0-.79-.06-1.32S312.93,307,312.9,306.52Z" id="el_cuReeZZY0-2"/><path d="M304.83,271.28c.29.23.43.36.73.61l.74.64.9-.62.89-.6c-.18.4-.27.61-.44,1s-.26.62-.43,1.05l.76.72.77.77-1-.1-1-.07-.43,1.1c-.17.44-.25.67-.42,1.12-.09-.47-.14-.71-.22-1.16s-.13-.68-.21-1.12l-1,0h-1.05l.92-.66.92-.65c-.07-.42-.11-.63-.18-1S304.89,271.67,304.83,271.28Z" id="el_k18GohjG1az"/><path d="M309.15,279.62l.79.91.8,1,.87-.61.86-.61c-.15.48-.22.73-.37,1.22s-.22.74-.37,1.24l.8,1,.8,1.08-1-.29-1-.26c-.15.51-.22.77-.37,1.29s-.22.78-.37,1.31c-.11-.59-.16-.89-.27-1.47s-.17-.87-.28-1.43l-1-.23-1.06-.2.89-.65.88-.65c-.1-.54-.15-.81-.26-1.34S309.25,280.13,309.15,279.62Z" id="el_Tfrb9nX7EE8"/><path d="M313.42,289.59c.25.29.37.44.62.75l.62.78.85-.61.84-.59c-.18.43-.28.65-.46,1.09l-.47,1.1.62.81.61.84-.9-.15-.91-.14c-.18.45-.28.67-.47,1.12s-.28.67-.48,1.12c0-.48-.05-.72-.09-1.2s-.05-.71-.09-1.18c-.36-.05-.55-.07-.91-.1s-.55-.06-.92-.08l.86-.64.86-.63c0-.47-.05-.7-.09-1.16S313.46,290,313.42,289.59Z" id="el_pJYi9eqKhG1"/><path d="M316.53,298.44c.24.34.36.51.59.86l.6.87.85-.57c.33-.23.5-.35.84-.57l-.48,1.12-.48,1.14c.24.36.36.54.59.91s.35.55.58.92l-.88-.22-.88-.2c-.19.46-.29.69-.48,1.16s-.3.69-.49,1.17c0-.52,0-.78-.07-1.29s0-.77-.06-1.27l-.9-.19-.9-.16.86-.61.85-.61c0-.5,0-.74-.07-1.24S316.56,298.92,316.53,298.44Z" id="el_6EWvnTfERHC"/><path d="M307.44,262.79c.49.51.94,1.08,1.22,1.34s.43.39.72.68l.85-.58.86-.57c-.16.41-.25.62-.41,1l-.4,1.06c.31.32.46.49.77.85a7.47,7.47,0,0,0,.71.69l-1-.06a7.2,7.2,0,0,1-1-.15c-.17.44-.23.68-.41,1.06l-.45,1c-.06-.4-.08-.55-.17-1s-.14-.71-.22-1.17c-.4-.05-.61-.06-1-.09l-1-.05.89-.62.87-.61c-.07-.43-.11-.64-.17-1.05A12.66,12.66,0,0,0,307.44,262.79Z" id="el_J8fPuYdnw5s"/><path d="M312,271.35c.29.3.44.46.73.78s.45.48.75.82l.84-.55.84-.53c-.15.42-.23.63-.38,1.06s-.23.64-.38,1.08c.31.35.45.53.76.9s.45.55.75.93l-1-.24-1-.23c-.15.45-.22.68-.38,1.13s-.22.69-.37,1.16c-.1-.53-.15-.78-.25-1.29s-.14-.75-.23-1.24l-1-.18c-.4-.06-.6-.1-1-.15l.87-.59.85-.57c-.08-.47-.13-.71-.21-1.16S312.07,271.79,312,271.35Z" id="el_m3yUAHgc2g3"/><path d="M316.4,281c.31.42.46.64.77,1.08s.47.66.78,1.12c.33-.23.49-.34.82-.55s.49-.33.81-.55a5.55,5.55,0,0,1-.42,1.07c-.17.41-.26.61-.44,1l.61.79.6.81-.88-.17-.88-.14-.45,1-.45,1.06-.1-1.14-.1-1.12-.89-.11a3.22,3.22,0,0,1-.92-.14l.84-.59.83-.58c-.11-.6-.16-.89-.27-1.47S316.5,281.54,316.4,281Z" id="el_Si1xJVQYbVZ"/><path d="M319.88,290.25l.6.87c.25.35.37.53.61.89l.82-.52.82-.51c-.18.42-.27.64-.44,1.08s-.27.64-.44,1.08c.24.37.35.51.58.86l.58.88-.86-.22-.87-.22c-.18.43-.28.64-.47,1.07l-.46,1.08c0-.48-.05-.72-.08-1.2s0-.7-.08-1.19l-.88-.22-.9-.21.83-.55.83-.55c0-.49-.06-.73-.09-1.22Z" id="el_SwzHY8LAhet"/><path d="M322.87,299.59l.57.94.58,1,.81-.52.82-.5c-.19.44-.28.66-.46,1.1l-.47,1.12.57,1c.23.4.34.6.56,1l-.85-.3-.86-.28c-.19.45-.28.68-.47,1.14s-.29.69-.48,1.16l-.05-1.33c0-.53,0-.8-.06-1.32l-.87-.26-.87-.26.83-.55.83-.54c0-.51,0-.77-.07-1.28S322.89,300.1,322.87,299.59Z" id="el_2qoXnRKUvI8"/><path d="M315.08,264.64l.67.66.68.7.81-.48.82-.47-.4.93c-.15.37-.23.55-.38.94.28.3.41.46.69.77s.43.48.71.81l-.94-.21-.93-.18c-.16.39-.24.58-.39,1s-.22.6-.38,1c-.08-.46-.12-.68-.2-1.12s-.13-.66-.2-1.08l-.95-.14-.95-.13.84-.52.83-.5c-.07-.41-.11-.61-.17-1S315.14,265,315.08,264.64Z" id="el_Puot2L93G0l"/><path d="M319.08,273l.74.95.74,1,.79-.48.8-.48c-.14.44-.21.67-.34,1.11s-.2.67-.34,1.13l.75,1.06.74,1.1L322,278l-1-.36-.33,1.17c-.13.47-.2.71-.34,1.19l-.25-1.41c-.11-.56-.16-.84-.26-1.38l-1-.32-1-.31.82-.52.8-.51c-.09-.52-.15-.78-.24-1.29S319.17,273.51,319.08,273Z" id="el_heuiIH0xXPW"/><path d="M323.12,283l.6.85.6.86.79-.48.8-.47c-.18.4-.26.61-.43,1s-.25.61-.41,1c.24.36.35.54.6.9l.59.92-.85-.28-.86-.26-.43,1c-.17.41-.25.62-.42,1-.05-.48-.07-.72-.11-1.2s-.07-.72-.11-1.19l-.87-.23-.87-.22.8-.51.8-.5c0-.47-.06-.7-.11-1.16S323.17,283.46,323.12,283Z" id="el_sjQBh3TvZ1G"/><path d="M326.24,292.2l.57.9.58.92.79-.46.81-.46c-.18.42-.29.63-.46,1l-.44,1c.23.38.35.56.57.94l.57,1-.84-.31-.84-.3-.45,1.06-.45,1.07c0-.5,0-.75-.08-1.25s0-.74-.07-1.23l-.85-.28-.86-.27.81-.49.8-.48c0-.48,0-.72-.08-1.2S326.27,292.68,326.24,292.2Z" id="el_CVzoqy8sTnH"/><path d="M317.24,256.51c.44.51.83,1,1.1,1.35s.42.49.71.84l.77-.44.77-.44c-.13.4-.19.6-.32,1s-.19.62-.32,1c.3.41.46.61.77,1.05a4.65,4.65,0,0,0,.67.77l-.88-.16a4.36,4.36,0,0,1-.95-.34,6.54,6.54,0,0,1-.34,1l-.39.86c-.06-.38-.07-.5-.18-1s-.17-.78-.28-1.29l-.95-.29c-.38-.11-.56-.16-.94-.24l.8-.49.8-.47c-.09-.46-.14-.69-.22-1.12A12.32,12.32,0,0,0,317.24,256.51Z" id="el_-Reznr4Yl-1"/><path d="M321.65,265.54l.69.82.69.85.78-.41.77-.42c-.13.38-.2.57-.34,1l-.34,1c.29.37.43.55.71.93s.43.57.71,1l-.91-.34-.93-.31c-.13.4-.2.6-.34,1s-.2.62-.34,1c-.09-.5-.14-.75-.23-1.23s-.14-.73-.24-1.2l-.92-.28-.93-.26.8-.45.79-.44c-.09-.46-.13-.68-.21-1.13S321.73,266,321.65,265.54Z" id="el_K9F7OXyMkiU"/><path d="M325.82,275.07l.73,1.09c.3.45.45.67.74,1.13l.77-.44c.3-.17.45-.26.76-.42a5.89,5.89,0,0,1-.38,1c-.15.38-.23.57-.39,1l.6.86.6.88-.85-.28-.85-.27-.4,1c-.17.4-.25.6-.41,1-.05-.46-.07-.68-.12-1.14s-.07-.68-.12-1.13l-.85-.23a4.29,4.29,0,0,1-.88-.26l.79-.47.78-.46c-.1-.57-.16-.85-.26-1.4S325.92,275.61,325.82,275.07Z" id="el_JKO4UOs67kd"/><path d="M329.31,284.56l.61.94c.24.38.37.57.61,1l.78-.41.78-.4-.4,1-.4,1c.24.39.34.54.58.9l.57.91-.84-.31-.85-.31-.43,1c-.18.39-.27.59-.44,1,0-.47-.05-.71-.09-1.17s0-.66-.08-1.16l-.87-.33c-.35-.14-.53-.2-.87-.32l.8-.45c.31-.18.47-.26.79-.43-.05-.5-.08-.74-.13-1.23S329.36,285,329.31,284.56Z" id="el_WX-qcaWw11Y"/><path d="M332.36,294l.58,1c.23.39.35.58.57,1l.8-.42.79-.41-.43,1-.45,1c.23.4.35.6.57,1l.57,1-.84-.36-.85-.36-.45,1c-.19.43-.28.64-.46,1.07,0-.51,0-.77-.07-1.28s0-.77-.07-1.28l-.85-.34-.86-.33.81-.45.81-.44c0-.5,0-.75-.08-1.24S332.4,294.49,332.36,294Z" id="el_PdoLopRBaaU"/><path d="M324.4,259.58l.63.71.64.74.74-.36.73-.34-.33.82c-.14.33-.2.5-.34.83.26.32.4.48.66.81s.4.5.67.85l-.87-.31-.87-.29c-.14.35-.2.53-.34.88l-.33.9c-.09-.43-.13-.65-.21-1.07s-.13-.63-.2-1c-.35-.11-.53-.16-.88-.25l-.88-.23.77-.39.75-.37c-.07-.4-.11-.59-.18-1S324.46,260,324.4,259.58Z" id="el_d5yZkZZHYWY"/><path d="M328.25,267.9l.7,1c.27.39.42.59.7,1l.73-.36c.29-.15.43-.22.72-.35-.11.39-.17.59-.29,1s-.17.6-.29,1l.72,1.07.71,1.11-.9-.46-.89-.44c-.12.42-.18.63-.29,1.06l-.3,1.08c-.11-.55-.16-.82-.26-1.35s-.16-.79-.26-1.31l-.91-.41-.91-.39.76-.4.74-.38c-.1-.51-.15-.75-.24-1.24S328.34,268.37,328.25,267.9Z" id="el_Mr34-_3h1fC"/><path d="M332.23,277.81l.6.92.61.93.73-.36.73-.35-.35.94c-.15.38-.22.57-.36.95l.61,1,.61,1-.84-.39c-.33-.16-.5-.23-.84-.38l-.37,1-.38,1c-.06-.49-.09-.73-.14-1.21l-.15-1.19-.84-.35-.85-.33.77-.39.75-.39-.15-1.16C332.31,278.5,332.28,278.27,332.23,277.81Z" id="el_jR6IRVTSdJq"/><path d="M335.52,287.26l.57.93.58.94.75-.35.75-.34c-.15.37-.23.56-.39.93l-.4.95.58,1,.57,1-.82-.39-.83-.38c-.17.39-.25.58-.41,1l-.42,1-.1-1.2-.1-1.19-.83-.36c-.33-.14-.5-.22-.84-.35L335,290l.77-.37c-.05-.47-.06-.7-.11-1.17Z" id="el_YoLctYyJ2P4"/><path d="M326,251.79c.4.51.73,1,1.07,1.32s.5.53.85.93l1.18-.53c.46-.21.7-.31,1.16-.5-.25.45-.38.67-.62,1.14l-.62,1.19c.37.45.55.69.92,1.18a3.86,3.86,0,0,0,.79.79l-1.19-.11a2.27,2.27,0,0,1-1.19-.38,3.83,3.83,0,0,1-.25,1c-.13.3-.2.45-.33.76-.07-.37-.07-.44-.21-1s-.21-.86-.34-1.41c-.36-.2-.54-.3-.9-.48l-.89-.43.71-.35.71-.34c-.12-.5-.17-.74-.27-1.2A13.68,13.68,0,0,0,326,251.79Z" id="el_-3r3hjpRCho"/><path d="M330.43,261.23a7.56,7.56,0,0,0,.71.82l.8.82c.45-.2.68-.3,1.13-.48l1.11-.46-.63,1-.63,1c.32.35.48.52.8.89s.48.55.8.93c-.47-.12-.71-.18-1.19-.28a5.22,5.22,0,0,1-1.11-.29c-.12.36-.17.54-.29.91s-.17.55-.28.93l-.25-1.18c-.1-.46-.15-.69-.24-1.14-.34-.15-.51-.23-.86-.37l-.85-.35.71-.33.71-.32-.22-1.07C330.56,261.84,330.52,261.63,330.43,261.23Z" id="el_wtXh4KDKGlQ"/><path d="M334.5,270.58a11,11,0,0,0,.75,1.08l.82,1.08,1.08-.49,1.07-.45a9.21,9.21,0,0,1-.62,1l-.63,1,.71.89c.29.35.43.54.72.9l-1.11-.27a4.86,4.86,0,0,1-1-.28l-.33.9c-.14.36-.2.55-.34.91-.06-.46-.1-.68-.16-1.14s-.1-.68-.16-1.12l-.81-.35a6.37,6.37,0,0,1-.82-.37l.71-.35.7-.33c-.11-.54-.16-.81-.27-1.33S334.61,271.1,334.5,270.58Z" id="el_3M2iozHKpYL"/><path d="M338.13,280.22c.25.4.37.61.66,1s.44.58.72,1l1.06-.44,1-.42-.6,1-.6,1.06c.29.41.4.53.67.89l.67.9-1.07-.29a5.41,5.41,0,0,1-1-.3l-.37.88c-.15.35-.22.53-.38.89,0-.46-.07-.68-.11-1.13s-.07-.62-.13-1.12l-.83-.45-.84-.43.74-.33.72-.31c-.07-.49-.11-.73-.17-1.22S338.2,280.7,338.13,280.22Z" id="el_mbA0WV70ciz"/><path d="M341.38,289.71a11.31,11.31,0,0,0,.62,1l.66.95,1-.42,1-.4-.6,1-.61,1,.65,1,.66,1-1-.36a6.13,6.13,0,0,1-1-.36c-.16.37-.24.56-.39.95l-.4,1c0-.5-.06-.74-.11-1.23s-.06-.74-.11-1.22l-.82-.43-.82-.41.75-.33.74-.32c0-.47-.07-.71-.11-1.18S341.43,290.18,341.38,289.71Z" id="el_X2V5Xf2t9Ag"/><path d="M335.26,255.05l.69.71.69.75,1-.33,1-.32c-.25.32-.36.48-.6.8l-.6.82.71.82.71.85-1.07-.32c-.43-.13-.65-.18-1.09-.3-.24.35-.36.53-.61.88l-.62.91c0-.44,0-.65-.07-1.07s0-.63-.07-1c-.44-.1-.67-.15-1.12-.23s-.68-.14-1.14-.21l1.11-.42,1.08-.39c0-.4,0-.59,0-1S335.27,255.42,335.26,255.05Z" id="el_r5aMC3wO80W"/><path d="M338.78,263.37l.74,1c.3.39.45.59.74,1l1-.33,1-.31c-.22.38-.32.56-.52.95s-.31.58-.53,1c.31.42.45.64.75,1.07l.75,1.09-1.07-.47-1.08-.44-.54,1c-.22.42-.32.63-.54,1.06l-.15-1.32c-.05-.52-.08-.78-.13-1.29l-1.13-.39c-.45-.15-.67-.23-1.13-.37l1.06-.41,1-.39c-.05-.49-.07-.74-.12-1.22S338.82,263.84,338.78,263.37Z" id="el_Tve2UrG1YDU"/><path d="M342.52,273.28l.67,1c.27.39.4.59.68,1l1-.32,1-.3c-.24.37-.33.55-.55.93l-.54.94.68,1c.26.42.4.62.67,1.05l-1-.46-1-.43-.56,1c-.23.39-.35.59-.57,1,0-.5-.05-.75-.08-1.24s0-.74-.07-1.23l-1.05-.38c-.42-.15-.63-.22-1.06-.35.41-.17.61-.25,1-.4l1-.38c0-.48,0-.72-.07-1.19S342.54,273.75,342.52,273.28Z" id="el_e50l6tPIWJg"/><path d="M345.8,283.05l.63.94.63,1,.95-.3.94-.29c-.25.36-.34.53-.56.89l-.55.9c.24.39.37.58.62,1s.37.59.62,1l-1-.42-1-.42-.58.94-.58,1c0-.48,0-.72,0-1.19s0-.71,0-1.18l-1-.38-1-.35c.4-.16.6-.23,1-.37s.59-.22,1-.35c0-.47,0-.7,0-1.16S345.82,283.51,345.8,283.05Z" id="el_TcR05U1UlJ9"/><path d="M338.78,247c.38.5.68.91,1,1.34s.46.66.78,1.15l.94-.23.93-.21-.43,1c-.18.41-.26.62-.43,1.05.33.55.5.83.85,1.44a5.23,5.23,0,0,0,.68.91l-1-.35a4.5,4.5,0,0,1-1.1-.65,3.34,3.34,0,0,1-.48,1l-.59.72a5.36,5.36,0,0,0-.09-1c-.11-.64-.16-1-.25-1.56-.46-.26-.68-.38-1.14-.62s-.68-.34-1.13-.55l1-.31,1-.28c-.08-.55-.11-.81-.17-1.3A13.35,13.35,0,0,0,338.78,247Z" id="el_D4cFz_gYUYP"/><path d="M342.83,257c.27.35.41.52.68.88l.69.9.93-.2.92-.19c-.19.3-.3.45-.5.76l-.51.79c.28.39.42.58.69,1l.7,1c-.4-.21-.6-.3-1-.5l-1-.47c-.21.34-.31.51-.53.85s-.32.52-.53.88c0-.47-.07-.7-.11-1.15s-.07-.68-.11-1.12l-1.05-.41-1.05-.39,1-.28,1-.26c0-.42-.05-.64-.09-1S342.86,257.35,342.83,257Z" id="el_qDI5ZKS9z4K"/><path d="M346.43,266.26l.73,1.11.72,1.12.93-.22.9-.21a6.9,6.9,0,0,1-.5.84l-.51.83.65,1,.65,1c-.39-.21-.58-.31-1-.5s-.6-.3-1-.48c-.22.34-.32.52-.54.87l-.56.89c0-.47,0-.7-.07-1.17s0-.69-.06-1.15c-.41-.18-.61-.26-1-.42s-.59-.23-1-.43l1-.3,1-.27c-.06-.52-.08-.78-.14-1.29S346.48,266.76,346.43,266.26Z" id="el_CwNPbX9m5Jb"/><path d="M349.84,276.16c.28.43.41.65.68,1.08s.41.66.67,1.1l.94-.2.92-.18-.5.88-.52.89c.27.45.37.58.62,1l.62,1-1-.47-1-.46-.58.82-.59.85c0-.45,0-.67,0-1.11s0-.6,0-1.11l-1-.52c-.41-.21-.62-.31-1-.5l1-.28c.39-.11.59-.16,1-.25,0-.5-.06-.75-.09-1.24s-.05-.74-.09-1.23" id="el_jGE3Q259G1_"/><path d="M352.93,285.81c.26.4.38.6.63,1l.62,1,.95-.21.92-.18c-.22.32-.32.49-.54.82l-.56.85c.25.41.38.62.62,1s.37.62.62,1.05c-.38-.21-.57-.32-1-.52l-1-.5-.58.89-.59.9c0-.48,0-.72,0-1.2s0-.72,0-1.19l-1-.47-1-.45,1-.28,1-.26c0-.46,0-.69,0-1.16s0-.69,0-1.15" id="el_W5CVUloQ9Nl"/><path d="M346.68,252.34c.24.31.36.47.6.8l.61.82.83-.08.81-.06-.44.59-.45.62c.25.35.37.52.62.89l.62.91-.9-.52-.9-.49-.47.66-.47.69c0-.4-.06-.59-.11-1s0-.58-.09-1l-.93-.44c-.38-.18-.57-.27-.95-.43l.9-.15.87-.12c0-.36-.05-.54-.07-.89s-.05-.52-.08-.86" id="el_LigBLWcVmDO"/><path d="M349.93,260.59c.27.41.4.61.66,1s.4.62.67,1.05l.81-.09.8-.08-.39.74c-.15.31-.23.46-.4.77.27.44.41.66.67,1.11s.41.67.67,1.13c-.36-.26-.54-.39-.91-.64l-.94-.62-.42.82c-.17.33-.25.5-.43.84-.06-.49-.09-.73-.16-1.22l-.15-1.18c-.38-.24-.58-.36-1-.58l-1-.56.88-.16.86-.14-.15-1.12c-.06-.44-.08-.66-.14-1.1" id="el_vJJbBqCIK99"/><path d="M353.5,270.43l.63,1.07c.26.43.39.65.64,1.09l.82-.09.8-.08c-.16.3-.24.46-.41.76l-.42.79.65,1.13.64,1.14-.91-.65L355,275l-.45.82c-.19.32-.28.49-.47.82,0-.48-.06-.72-.11-1.2s-.07-.72-.12-1.2l-.94-.59L352,273l.88-.16.86-.14c-.05-.46-.07-.7-.12-1.16s-.07-.69-.11-1.14" id="el_MMB3uoJtq1q"/><path d="M356.84,280.44l.6,1c.24.4.35.6.59,1l.83-.08.82-.07-.45.7-.46.72c.24.41.36.61.59,1l.6,1-.89-.59c-.35-.24-.53-.35-.89-.58l-.49.75c-.2.31-.3.47-.51.78,0-.45,0-.67-.06-1.11s0-.67-.06-1.11l-.92-.54-.93-.53.9-.15.87-.13c0-.43,0-.65-.07-1.07s0-.65-.07-1.07" id="el_AwO5hL27Na2"/><path d="M348.85,245.35c.31.52.54.88.82,1.38s.38.77.75,1.33c.53,0,.79,0,1.29,0l1.23.06-.66.85-.68.93c.39.63.59,1,1,1.66a4.17,4.17,0,0,0,.77,1c-.49-.23-.73-.34-1.23-.55a2.81,2.81,0,0,1-1.07-.91,2.23,2.23,0,0,1-.27.9l-.42.52a5.64,5.64,0,0,0-.15-1l-.36-1.63c-.38-.37-.58-.55-1-.9s-.57-.51-1-.83l.77-.06.75,0c-.11-.56-.17-.83-.26-1.34S349,245.88,348.85,245.35Z" id="el_o1ud-Au1Dw2"/><path d="M352.84,255.7l.59.94a7.05,7.05,0,0,0,.62,1c.51,0,.75,0,1.23,0s.72,0,1.18.08l-.72.53-.75.58.76,1c.3.41.45.62.75,1.05-.47-.28-.72-.41-1.21-.67a6.09,6.09,0,0,1-1-.65l-.35.65-.37.66c-.06-.42-.1-.63-.16-1s-.09-.62-.15-1c-.34-.25-.51-.37-.85-.6s-.52-.35-.86-.58l.77,0h.75c-.05-.39-.08-.59-.14-1s-.08-.56-.13-.93" id="el_FW8vj1n8krm"/><path d="M356.27,264.81c.25.46.39.69.64,1.15a12.74,12.74,0,0,0,.67,1.16c.47,0,.71,0,1.16,0s.68,0,1.12.05c-.25.27-.39.38-.66.64l-.7.64.75,1.12.73,1.13c-.46-.29-.7-.43-1.17-.71a5.1,5.1,0,0,1-.93-.69l-.36.7-.37.72c0-.45-.09-.68-.15-1.13l-.15-1.11-.84-.64c-.33-.25-.5-.35-.85-.63l.76-.05.74,0-.2-1.17c-.07-.47-.11-.7-.19-1.16" id="el_fQ9nZjhA9rO"/><path d="M359.77,274.84l.63,1.18c.25.48.35.72.65,1.2l1.13,0,1.08.07-.62.69-.65.71c.3.5.41.62.69,1l.67,1c-.44-.28-.66-.41-1.11-.67a6,6,0,0,1-.9-.64l-.4.63-.41.64-.1-1c0-.41,0-.54-.1-1l-.87-.74-.88-.72.78,0h.76c-.07-.49-.11-.72-.18-1.2s-.1-.71-.17-1.18" id="el_l5Na3q56I9z"/><path d="M363,284.51l.57,1.06c.24.42.32.64.6,1.07.44,0,.66,0,1.08,0l1,.07c-.24.24-.37.36-.63.6L365,288l.68,1.09.67,1.1c-.43-.29-.64-.43-1.08-.7a7.17,7.17,0,0,1-.91-.67c-.15.27-.24.41-.4.68l-.41.7c-.05-.44-.06-.66-.1-1.1s-.07-.66-.11-1.1l-.84-.64c-.34-.26-.51-.38-.86-.63l.8,0,.77,0c-.05-.43-.07-.65-.11-1.08s-.07-.63-.11-1.05" id="el_neKRNdPRQzT"/><path d="M306.12,362.51l-2.42,1.61a2.23,2.23,0,0,0-.65,2.9,1.91,1.91,0,0,0,1.7,1,1.82,1.82,0,0,0,1-.31l.64-.42C306.29,365.68,306.21,364.08,306.12,362.51Z" id="el_3dY6onMrpUI"/><path d="M384,347.26h-.44c-1.3.05-2.62.16-4,.32s-2.61.37-4,.63h0a49.46,49.46,0,0,1,8.39-1v0m-8-7.59-.25,0c-.86.11-1.75.25-2.65.41h0c.9-.16,1.79-.3,2.65-.41l.25,0m2.27-.23h0m2.89-.13-.94,0c-.66,0-1.3.06-1.95.11.65-.05,1.29-.09,1.95-.11l.95,0h0m-5.95-16.78c-1.26,0-2.38.1-3.58.22s-2.42.3-3.71.52h0c1.29-.22,2.52-.4,3.71-.52s2.32-.2,3.58-.21h0m-3-8.56c-1,0-1.84.09-2.78.19.94-.1,1.81-.17,2.78-.19h0m-2.92-8.23c-.73,0-1.41.09-2.14.17.73-.08,1.41-.13,2.14-.17h0m-5.68-8h0m.92-.11-.79.09h-.13l.92-.1m.41,0-.29,0,.29,0m2.93-.15h0m0,0h0" id="el_c247-w_avDR"/><path d="M384.58,347.26H384v0h.72q1.26,0,2.43.09h0c-.9-.07-1.8-.09-2.58-.09m-1.46-7.91h0m-.08,0h0m-1.52,0h0l1.48,0-1.49,0m-6-16.78h.33c.94,0,1.92,0,3,.14-1-.1-2-.14-3-.15h-.33M373,314h.47a32.52,32.52,0,0,1,3.32.21,29.89,29.89,0,0,0-3.32-.21H373m-2.42-8.24c-.47,0-.92,0-1.34,0h0c.42,0,.86,0,1.34,0h.51a28.85,28.85,0,0,1,3.29.22h0a28.85,28.85,0,0,0-3.29-.22h-.51" id="el_eZEOZRCzOFf"/><path d="M381.53,339.31h-.34l-.95,0c-.66,0-1.3.06-1.95.11h0c-.74.06-1.48.14-2.24.23l-.25,0c-.86.11-1.75.25-2.65.41l2.49,8.1c1.37-.26,2.69-.47,4-.63s2.68-.27,4-.31l.44,0h.57c.78,0,1.68,0,2.58.09l-2.43-7.89c-.55,0-1.09-.09-1.61-.11H383l-1.48,0" id="el_eDEqCs6FMSF"/><path d="M375.56,322.53h-.33c-1.26,0-2.38.09-3.58.21s-2.42.3-3.71.52l2.61,8.49c1.12-.2,2.2-.35,3.25-.47a41.63,41.63,0,0,1,4.35-.27h.21a35.45,35.45,0,0,1,3.84.2l-2.61-8.46-.74-.08c-1-.1-2-.14-3-.15h-.33" id="el_Y2Wdr2fHnda"/><path d="M370.61,305.72c-.48,0-.92,0-1.34,0-.73,0-1.41.09-2.14.17H367c-1.31.14-2.67.35-4.12.63l-.07,0,2.51,8.18c1.42-.27,2.76-.47,4-.6h.06c.94-.1,1.82-.17,2.78-.19h1.31a29.89,29.89,0,0,1,3.32.21H377l-2.53-8.24a31.7,31.7,0,0,0-3.3-.22h-.51" id="el_Ye9CfBmC-aJ"/><path d="M363.71,297.68h0m4.11-.28a30.78,30.78,0,0,0-3.5.21l-.6.07.79-.09h.12l.29,0a28.82,28.82,0,0,1,2.91-.15h.81a29.84,29.84,0,0,1,3.23.25h0c-1.06-.13-2.11-.21-3.09-.24h-1" id="el_mpJ5fj7CGES"/><path d="M378.36,331h-.21a41.63,41.63,0,0,0-4.35.27c-1.05.12-2.13.27-3.25.47l2.57,8.36c.9-.16,1.79-.3,2.65-.41l.25,0c.76-.09,1.5-.17,2.24-.23h0c.65-.05,1.29-.09,1.95-.11l.95,0h.33l1.49,0h.11c.52,0,1.06.06,1.61.11l-2.53-8.24a35.45,35.45,0,0,0-3.84-.2" id="el_COHqMez9t7O"/><path d="M373,314h-.84c-1,0-1.84.09-2.78.19h-.06c-1.28.13-2.62.33-4,.6l2.63,8.51c1.29-.22,2.52-.4,3.71-.52s2.32-.2,3.58-.22h.66c.94,0,1.92.05,3,.15l.74.08L377,314.18h-.13a32.52,32.52,0,0,0-3.32-.21H373" id="el_g7OqHZ_3-if"/><path d="M367.84,297.4h0a28.82,28.82,0,0,0-2.91.15l-.29,0h-.12l-.92.1h-.06q-1.62.21-3.3.54l2.57,8.34.07,0c1.45-.28,2.81-.49,4.12-.63h.14c.73-.08,1.41-.13,2.14-.17.42,0,.87,0,1.34,0h.51a28.85,28.85,0,0,1,3.29.22l-2.55-8.28a29.46,29.46,0,0,0-3.22-.25h-.8" id="el_7I27NNQM0te"/><path d="M363.55,290.17c0-.44-.05-.66-.09-1.1s-.07-.66-.11-1.1l-.84-.64c-.34-.26-.51-.38-.86-.63l.79,0,.77,0-.1-1.07c-.05-.42-.07-.63-.11-1.05l.57,1.06c.24.42.32.64.6,1.07.44,0,.66,0,1.08,0l1,.07c-.24.24-.37.36-.63.6L365,288l.68,1.09.67,1.1c-.43-.29-.64-.43-1.08-.7a7.17,7.17,0,0,1-.91-.67c-.15.27-.24.41-.4.68s-.25.42-.42.7m-3-9.41-.1-1c0-.41,0-.54-.1-1l-.87-.74-.88-.72.78,0h.76c-.07-.48-.11-.72-.18-1.2s-.1-.71-.17-1.18l.63,1.18c.25.48.35.72.65,1.21.46,0,.69,0,1.13,0s.66,0,1.08.08l-.62.68-.65.72c.3.49.41.61.69,1l.67,1c-.44-.27-.66-.41-1.11-.67a6,6,0,0,1-.9-.64l-.4.63-.41.64m-3.38-10c0-.46-.09-.68-.15-1.13l-.15-1.11-.84-.64c-.33-.25-.5-.36-.85-.63l.76-.05.74,0-.2-1.18c-.07-.46-.11-.69-.19-1.15.25.46.39.69.64,1.15a12.74,12.74,0,0,0,.67,1.16h.3l.86,0c.46,0,.68,0,1.12.05-.25.27-.39.38-.66.64l-.7.64.75,1.12.73,1.13c-.46-.29-.7-.43-1.17-.71a5.1,5.1,0,0,1-.93-.69l-.36.7-.37.72m-3.54-9.84c-.06-.42-.1-.63-.16-1l-.15-1c-.34-.25-.51-.37-.85-.6s-.52-.35-.86-.58l.77,0h.75c-.05-.39-.08-.59-.14-1s-.08-.57-.13-.94l.59.94a7.05,7.05,0,0,0,.62,1c.51,0,.75,0,1.23,0s.72,0,1.18.08l-.72.53-.75.58.76,1c.3.41.45.62.75,1.05-.47-.28-.72-.41-1.21-.67a6.09,6.09,0,0,1-1-.65l-.35.65-.37.66m1-6.29a5.33,5.33,0,0,0-1.79.32,6.26,6.26,0,0,0-3.53,7.74l.09.28.85-.14-.15-1.12c-.06-.44-.08-.66-.14-1.1.27.41.4.61.66,1s.4.62.67,1.05l.81-.09.8-.08h0l-.39.74c-.15.31-.23.46-.4.77.27.44.41.66.67,1.11s.41.67.67,1.13c-.36-.26-.54-.39-.91-.64l-.94-.62-.42.82c-.17.33-.25.5-.43.84-.06-.49-.09-.73-.16-1.22l-.15-1.18-.79-.48,2.83,9.18.42-.08.86-.14c-.05-.46-.07-.7-.12-1.16s-.07-.69-.11-1.14l.63,1.07c.26.43.39.65.64,1.09l.82-.09.8-.08h0l-.41.77c-.16.31-.25.46-.41.78l.64,1.13.64,1.15-.91-.66L355,275l-.45.82c-.19.32-.28.49-.47.82,0-.48-.06-.72-.11-1.2s-.07-.72-.12-1.2l-.94-.59-.36-.22,2.91,9.43.62-.1.87-.13c0-.43,0-.65-.07-1.07s0-.65-.07-1.07l.6,1c.24.4.35.6.59,1l.83-.08.82-.07h0l-.45.7-.46.72.59,1,.6,1-.89-.59-.89-.58-.49.76-.51.77c0-.45,0-.67-.06-1.11s0-.67-.06-1.11l-.92-.54-.58-.33,4.67,15.19q1.68-.35,3.3-.54h.19l.6-.07a30.78,30.78,0,0,1,3.5-.21l1,0a28.23,28.23,0,0,1,3.09.24l-12-38.88a5.66,5.66,0,0,0-5.3-4.17" id="el_Cx40ezjOORa"/><path d="M349.93,260.59c.06.44.08.66.14,1.1l.15,1.12-.85.14.25.82.79.48c.06.47.09.7.16,1.18l.15,1.22c.18-.34.26-.51.43-.84l.42-.82.94.62c.37.25.55.38.91.64-.26-.46-.4-.68-.67-1.13s-.4-.67-.67-1.11c.17-.31.25-.46.4-.77l.39-.74-.8.08-.81.09c-.27-.43-.4-.64-.67-1.05s-.4-.62-.66-1" id="el_0PWG1NzfYdu"/><path d="M353.5,270.43c0,.45.07.68.11,1.14s.07.7.12,1.16l-.86.14-.42.08.13.43.36.22.94.59c.05.48.07.72.12,1.2s.07.72.11,1.2c.19-.33.28-.5.47-.82L355,275l.91.64.91.65-.64-1.14c-.26-.46-.39-.69-.65-1.13l.42-.79.41-.76-.8.08-.82.09c-.25-.44-.38-.66-.64-1.09l-.63-1.07" id="el_g_y36NfRBxe"/><path d="M356.84,280.44c0,.42,0,.64.07,1.06s0,.65.07,1.08l-.87.13-.62.1.07.24.58.34.92.54c0,.44,0,.66.06,1.11s0,.66.06,1.11c.21-.31.31-.47.51-.78l.49-.75c.36.23.54.34.89.58l.89.59-.6-1c-.23-.42-.35-.62-.59-1l.46-.72c.18-.28.27-.43.45-.7l-.82.07c-.33,0-.49,0-.83.08-.24-.41-.35-.61-.59-1l-.6-1" id="el_3ioyid__3W9"/><path d="M352.84,255.7c.05.37.08.56.13.94s.09.57.14,1h-.75l-.77,0c.35.23.52.34.86.58s.51.35.85.6l.15,1c.06.42.1.63.16,1l.37-.66.35-.65a5.47,5.47,0,0,0,1,.65c.49.26.74.39,1.22.67l-.76-1.05-.76-1,.75-.58.72-.53c-.46,0-.69-.06-1.18-.08s-.72,0-1.23,0a8.16,8.16,0,0,1-.62-1l-.59-.94" id="el_34pAh0kwN9R"/><path d="M356.27,264.81c.08.46.12.69.19,1.16l.2,1.17-.74,0-.76.05c.35.27.52.38.85.63l.84.64.15,1.11c.06.45.1.68.15,1.13l.37-.72.36-.7a5.1,5.1,0,0,0,.93.69c.47.28.71.42,1.17.71-.29-.46-.44-.68-.73-1.13l-.75-1.12.7-.64c.27-.26.41-.37.66-.64-.44,0-.66,0-1.12-.05l-.86,0h-.3a12.74,12.74,0,0,1-.67-1.16c-.25-.46-.39-.69-.64-1.15" id="el_1or0AymVfTz"/><path d="M359.77,274.84c.07.47.11.71.17,1.18s.11.72.18,1.2h-.76l-.78,0,.88.72.87.74c.07.48.06.61.1,1l.1,1,.41-.64.4-.63a6,6,0,0,0,.9.64c.45.26.67.39,1.11.67l-.67-1c-.28-.41-.39-.53-.69-1l.65-.71.62-.68c-.42,0-.64-.06-1.08-.08l-1.13,0c-.3-.48-.4-.72-.65-1.2l-.63-1.18" id="el_irH-_CJDZsV"/><path d="M363,284.51c0,.42.06.63.11,1.05l.1,1.07-.77,0-.79,0c.35.25.52.37.86.63l.84.64.1,1.1c.05.44.06.66.1,1.1.17-.28.26-.42.42-.7s.25-.41.4-.68a7.17,7.17,0,0,0,.91.67c.44.27.65.41,1.08.7l-.67-1.1L365,288l.65-.64.63-.6-1-.07c-.42,0-.64,0-1.08,0-.28-.43-.36-.65-.6-1.07l-.57-1.06" id="el_7kSKEPm9Rvl"/></g></g><g id="el_plnRsTfgI9f_an_ZjQJ3NDQS" data-animator-group="true" data-animator-type="0"><g id="el_plnRsTfgI9f"><rect x="331" y="176.42" width="22" height="54" rx="9" ry="9" id="el_N3HTh_b4toF"/><g id="el_lYGQvVJ_Mq_" data-name="cuerpo"><path d="M455.17,417.1l0-.9a22.83,22.83,0,0,0-17.53-22.91l-105-24.62c-.79-.18-1.58-.32-2.36-.42l.12-.29h-3.77a19.43,19.43,0,0,1-19.37-19.37h0a19.46,19.46,0,0,1,.28-3.17L250,398H211.34l-55.13-50.34v3.86A15.54,15.54,0,0,1,141.4,367a19.12,19.12,0,0,1-8.44,2h-1.63l0,0L27.63,393.29a22.53,22.53,0,0,0-12.27,7.62l0,0a22.29,22.29,0,0,0-6,16.21A22.55,22.55,0,0,0,9,420.71v64.13a21.81,21.81,0,0,0,1.65,8.32c.06.15.12.3.19.45h0a22.8,22.8,0,0,0,20.89,13.81h401a22.82,22.82,0,0,0,20.9-13.81h0l.18-.45a21.81,21.81,0,0,0,1.65-8.32V420.71A22.55,22.55,0,0,0,455.17,417.1Z" id="el_hDqIIfvuzVn"/><path d="M281.77,330.88a11.57,11.57,0,0,1-1,.65,45.55,45.55,0,0,1-28.41,9.89H212.6a45.48,45.48,0,0,1-29.19-10.54L152,308v94.39a12,12,0,0,0,12,12H299a12,12,0,0,0,12-12V308.7Z" id="el_k17AiYH3mqD"/><path d="M282.58,334.75a11,11,0,0,1-1,.73A42.75,42.75,0,0,1,253,346.69H213a42.86,42.86,0,0,1-29.38-11.95l-29.68-24.32H152v36.27l32.2,31.73c72.45,15.87,127.8-68,127.8-68h-1Z" id="el_uam9fsWiXjc"/><path d="M281.61,89.42H183.39c-32.66,0-59.39,26-59.39,57.75V260.06A57.31,57.31,0,0,0,148.88,307a10.58,10.58,0,0,0,2.54,2.64l32,23.27a45.48,45.48,0,0,0,29.19,10.54h39.8a45.55,45.55,0,0,0,28.41-9.89,11.57,11.57,0,0,0,1-.65L313,309.15c.26-.2.5-.41.74-.62C330.12,298.21,341,280.32,341,260.06V147.17C341,115.41,314.27,89.42,281.61,89.42Z" id="el__0kOqE2ttSs"/><path d="M232.5,343.42s-37.5-6-54.5-70v-120s-3-18,27-24c0,0,72.79,4.16,100.89-34.92,0,0-11.85-4.4-17.87-4.74s-120.88-.82-116.95.92S135,89.92,124,145.17l1,125.68s1,14.22,18.46,31.9L190,337.45s11,5.29,17,5.63S232.5,343.42,232.5,343.42Z" id="el_jia5xHB7te0"/><path d="M362.45,181.42c1.69-6,7.24-23.69,14.91-27,9.27-4-5.15-118-54.57-116s-16.48,68-16.48,68,32.25,13.71,32.94,75Z" id="el_REOQGafE-ST"/><path d="M235.34.42h0c-77.32,4-111.59,23-111.59,23l14.3,10,.35.1-.55.35C93.89,61.2,87.94,124.43,87,150.42c.61.13,0,.52,0,.52l15.26,28.48h21.36s-1-63.06,69.16-67.12,53.91,12.2,113.93-11.19C353.76,82.77,333.89-6.85,235.34.42Z" id="el_A_WUlMUC-Eq"/><path d="M118.41,102.68s-7.58-35.11,19.5-69.26c0,0-50.91,23.72-50.91,112,0,0,10.83,7.59,15.16,28.46l6.39,5.59H114l8.77-5.59s8.67-60.72,61.74-61.67c49.19-.88,83.48-.94,89.1-.19C263.78,109.07,166.48,76.7,118.41,102.68Z" id="el_ykQ7XLIeV4O"/><path d="M274.39,112.16a2.28,2.28,0,0,0-.81-.19C274.16,112.14,274.45,112.22,274.39,112.16Z" id="el_LAKhHf84P8G"/></g><rect x="110" y="176.42" width="22" height="54" rx="9" ry="9" id="el_lD86k3EoIy9"/></g></g><g id="el_yk7KLFbT0H__an_-zDuYSdV6" data-animator-group="true" data-animator-type="0"><g id="el_yk7KLFbT0H_"><path d="M437.53,398.42H249l.21.2L229,417.42l-20.21-18.8.21-.2H23.47A23.54,23.54,0,0,0,0,421.89V488a23.54,23.54,0,0,0,23.47,23.47H437.53A23.54,23.54,0,0,0,461,488V421.89A23.54,23.54,0,0,0,437.53,398.42Z" id="el_fkDhUAYLqNi"/><rect x="2.78" y="379.98" width="157.47" height="74.23" rx="23.47" ry="23.47" id="el_GrUBYjnDCq1"/><rect x="300.79" y="379.88" width="158.31" height="74.23" rx="23.47" ry="23.47" id="el_WtC2pmR7pqR"/><path d="M333.77,357.73l-9.65-13.41a8.5,8.5,0,0,0-1.79-2.49l-.32-.44-.2,0a8.43,8.43,0,0,0-4.74-1.89h0a8.46,8.46,0,0,0-4.78,1.07h-.06l-.13.12a8.64,8.64,0,0,0-2.5,2.28l-78.13,71.34,54.2,35.46,1.24.53a8.71,8.71,0,0,0,11.4-4.55l37-86.27A11,11,0,0,1,333.77,357.73Z" id="el_krk48VxKqEV"/><path d="M124,357.73l9.65-13.41a8.68,8.68,0,0,1,1.79-2.49l.32-.44.21,0a8.37,8.37,0,0,1,4.73-1.89h0a8.44,8.44,0,0,1,4.78,1.07h.06l.14.12a8.6,8.6,0,0,1,2.49,2.28l78.13,71.34-54.2,35.46-1.24.53a8.71,8.71,0,0,1-11.4-4.55l-37-86.27A10.08,10.08,0,0,0,124,357.73Z" id="el_nmg2u16QlBq"/><path d="M460.67,418.69a23,23,0,0,0-6.2-17.27l-49.6,44.32a15.45,15.45,0,0,0-2.36,1.85l-4.27,4.08-5.81,5.18-.42.76-5.82,5.57c-4.1,3.91-6.15,9.84-6,15.74l-.2.35v32.15h57c13.22,0,24-10.49,24-23.31V422.49A22.75,22.75,0,0,0,460.67,418.69Z" id="el_d4mqVygUYZ4"/><path d="M.33,418.69a23,23,0,0,1,6.2-17.27l49.6,44.32a15.45,15.45,0,0,1,2.36,1.85l4.27,4.08,5.81,5.18.42.76,5.82,5.57c4.1,3.91,6.15,9.84,6,15.74l.2.35v32.15H24c-13.22,0-24-10.49-24-23.31V422.49A22.75,22.75,0,0,1,.33,418.69Z" id="el_kP-cp4VQEZX"/><path d="M352,511.42v-9.75a8.27,8.27,0,0,0-8.25-8.25h-61.5a8.27,8.27,0,0,0-8.25,8.25v9.75Z" id="el_-MBdP92g-H9"/></g></g><g id="el_pXnv0zQmXGO_an_VCPYgb3AX" data-animator-group="true" data-animator-type="0"><g id="el_pXnv0zQmXGO"><polygon points="213 436.42 247 436.42 252 511.42 208 511.42 213 436.42" id="el_-hu7rWLZuK9"/><path d="M230.67,414.42h-4.09L207,427.23v2.94a8.27,8.27,0,0,0,8.25,8.25h27.5a8.27,8.27,0,0,0,8.25-8.25v-2.45Z" id="el_2V_tjp-NpAw"/></g></g><g id="el_KvcjeILYKtT_an_NPrgw0vdL" data-animator-group="true" data-animator-type="0"><g id="el_KvcjeILYKtT"><rect x="90" y="184.42" width="26.71" height="54" rx="12" ry="12" id="el_3Pq9971Fotx"/><rect x="98.9" y="172.42" width="26.71" height="79" rx="7.67" ry="7.67" id="el_pVsVWWdMETb"/><path d="M345.72,242.29c0,29.37-33.53,53.13-75,53.13" id="el_Dj4jpagNXim"/><rect x="345.72" y="186.21" width="26.28" height="53.13" rx="12" ry="12" id="el_fQ35HbnLhMP"/><rect x="336.96" y="173.42" width="26.28" height="77.73" rx="7.67" ry="7.67" id="el_7xBGZAg2QI2"/><rect x="249.32" y="287.42" width="26.71" height="17" rx="8.5" ry="8.5" id="el_iZ0A8NBGO4_"/></g></g></g></g></svg>