<svg version="1.1" id="el_tjN9RboGo" xmlns="http://www.w3.org/2000/svg" xmlns:xlink="http://www.w3.org/1999/xlink" x="0px" y="0px"  viewBox="0 0 511 511" style="enable-background:new 0 0 511.8 511.8;" xml:space="preserve"><style>@-webkit-keyframes kf_el_OoZTO3ONWi_an_tfXNW3o3T{50%{-webkit-transform: translate(256.15000915527344px, 334.7124938964844px) scale(1.1, 1.1) translate(-256.15000915527344px, -334.7124938964844px);transform: translate(256.15000915527344px, 334.7124938964844px) scale(1.1, 1.1) translate(-256.15000915527344px, -334.7124938964844px);}70.83%{-webkit-transform: translate(256.15000915527344px, 334.7124938964844px) scale(1, 1.2) translate(-256.15000915527344px, -334.7124938964844px);transform: translate(256.15000915527344px, 334.7124938964844px) scale(1, 1.2) translate(-256.15000915527344px, -334.7124938964844px);}75%{-webkit-transform: translate(256.15000915527344px, 334.7124938964844px) scale(1, 1) translate(-256.15000915527344px, -334.7124938964844px);transform: translate(256.15000915527344px, 334.7124938964844px) scale(1, 1) translate(-256.15000915527344px, -334.7124938964844px);}0%{-webkit-transform: translate(256.15000915527344px, 334.7124938964844px) scale(1.1, 1.1) translate(-256.15000915527344px, -334.7124938964844px);transform: translate(256.15000915527344px, 334.7124938964844px) scale(1.1, 1.1) translate(-256.15000915527344px, -334.7124938964844px);}100%{-webkit-transform: translate(256.15000915527344px, 334.7124938964844px) scale(1, 1) translate(-256.15000915527344px, -334.7124938964844px);transform: translate(256.15000915527344px, 334.7124938964844px) scale(1, 1) translate(-256.15000915527344px, -334.7124938964844px);}}@keyframes kf_el_OoZTO3ONWi_an_tfXNW3o3T{50%{-webkit-transform: translate(256.15000915527344px, 334.7124938964844px) scale(1.1, 1.1) translate(-256.15000915527344px, -334.7124938964844px);transform: translate(256.15000915527344px, 334.7124938964844px) scale(1.1, 1.1) translate(-256.15000915527344px, -334.7124938964844px);}70.83%{-webkit-transform: translate(256.15000915527344px, 334.7124938964844px) scale(1, 1.2) translate(-256.15000915527344px, -334.7124938964844px);transform: translate(256.15000915527344px, 334.7124938964844px) scale(1, 1.2) translate(-256.15000915527344px, -334.7124938964844px);}75%{-webkit-transform: translate(256.15000915527344px, 334.7124938964844px) scale(1, 1) translate(-256.15000915527344px, -334.7124938964844px);transform: translate(256.15000915527344px, 334.7124938964844px) scale(1, 1) translate(-256.15000915527344px, -334.7124938964844px);}0%{-webkit-transform: translate(256.15000915527344px, 334.7124938964844px) scale(1.1, 1.1) translate(-256.15000915527344px, -334.7124938964844px);transform: translate(256.15000915527344px, 334.7124938964844px) scale(1.1, 1.1) translate(-256.15000915527344px, -334.7124938964844px);}100%{-webkit-transform: translate(256.15000915527344px, 334.7124938964844px) scale(1, 1) translate(-256.15000915527344px, -334.7124938964844px);transform: translate(256.15000915527344px, 334.7124938964844px) scale(1, 1) translate(-256.15000915527344px, -334.7124938964844px);}}@-webkit-keyframes kf_el_OoZTO3ONWi_an_4KsqyYjI7{50%{-webkit-transform: translate(256.15000915527344px, 334.7124938964844px) translate(-256.15000915527344px, -334.7124938964844px) translate(0px, 0px);transform: translate(256.15000915527344px, 334.7124938964844px) translate(-256.15000915527344px, -334.7124938964844px) translate(0px, 0px);}58.33%{-webkit-transform: translate(256.15000915527344px, 334.7124938964844px) translate(-256.15000915527344px, -334.7124938964844px) translate(0px, -10px);transform: translate(256.15000915527344px, 334.7124938964844px) translate(-256.15000915527344px, -334.7124938964844px) translate(0px, -10px);}66.67%{-webkit-transform: translate(256.15000915527344px, 334.7124938964844px) translate(-256.15000915527344px, -334.7124938964844px) translate(0px, 0px);transform: translate(256.15000915527344px, 334.7124938964844px) translate(-256.15000915527344px, -334.7124938964844px) translate(0px, 0px);}75%{-webkit-transform: translate(256.15000915527344px, 334.7124938964844px) translate(-256.15000915527344px, -334.7124938964844px) translate(0px, 10px);transform: translate(256.15000915527344px, 334.7124938964844px) translate(-256.15000915527344px, -334.7124938964844px) translate(0px, 10px);}83.33%{-webkit-transform: translate(256.15000915527344px, 334.7124938964844px) translate(-256.15000915527344px, -334.7124938964844px) translate(0px, 0px);transform: translate(256.15000915527344px, 334.7124938964844px) translate(-256.15000915527344px, -334.7124938964844px) translate(0px, 0px);}0%{-webkit-transform: translate(256.15000915527344px, 334.7124938964844px) translate(-256.15000915527344px, -334.7124938964844px) translate(0px, 0px);transform: translate(256.15000915527344px, 334.7124938964844px) translate(-256.15000915527344px, -334.7124938964844px) translate(0px, 0px);}100%{-webkit-transform: translate(256.15000915527344px, 334.7124938964844px) translate(-256.15000915527344px, -334.7124938964844px) translate(0px, 0px);transform: translate(256.15000915527344px, 334.7124938964844px) translate(-256.15000915527344px, -334.7124938964844px) translate(0px, 0px);}}@keyframes kf_el_OoZTO3ONWi_an_4KsqyYjI7{50%{-webkit-transform: translate(256.15000915527344px, 334.7124938964844px) translate(-256.15000915527344px, -334.7124938964844px) translate(0px, 0px);transform: translate(256.15000915527344px, 334.7124938964844px) translate(-256.15000915527344px, -334.7124938964844px) translate(0px, 0px);}58.33%{-webkit-transform: translate(256.15000915527344px, 334.7124938964844px) translate(-256.15000915527344px, -334.7124938964844px) translate(0px, -10px);transform: translate(256.15000915527344px, 334.7124938964844px) translate(-256.15000915527344px, -334.7124938964844px) translate(0px, -10px);}66.67%{-webkit-transform: translate(256.15000915527344px, 334.7124938964844px) translate(-256.15000915527344px, -334.7124938964844px) translate(0px, 0px);transform: translate(256.15000915527344px, 334.7124938964844px) translate(-256.15000915527344px, -334.7124938964844px) translate(0px, 0px);}75%{-webkit-transform: translate(256.15000915527344px, 334.7124938964844px) translate(-256.15000915527344px, -334.7124938964844px) translate(0px, 10px);transform: translate(256.15000915527344px, 334.7124938964844px) translate(-256.15000915527344px, -334.7124938964844px) translate(0px, 10px);}83.33%{-webkit-transform: translate(256.15000915527344px, 334.7124938964844px) translate(-256.15000915527344px, -334.7124938964844px) translate(0px, 0px);transform: translate(256.15000915527344px, 334.7124938964844px) translate(-256.15000915527344px, -334.7124938964844px) translate(0px, 0px);}0%{-webkit-transform: translate(256.15000915527344px, 334.7124938964844px) translate(-256.15000915527344px, -334.7124938964844px) translate(0px, 0px);transform: translate(256.15000915527344px, 334.7124938964844px) translate(-256.15000915527344px, -334.7124938964844px) translate(0px, 0px);}100%{-webkit-transform: translate(256.15000915527344px, 334.7124938964844px) translate(-256.15000915527344px, -334.7124938964844px) translate(0px, 0px);transform: translate(256.15000915527344px, 334.7124938964844px) translate(-256.15000915527344px, -334.7124938964844px) translate(0px, 0px);}}@-webkit-keyframes kf_el_73eWDj5yI4_an_yyIuUNbIU{0%{-webkit-transform: translate(255.9000015258789px, 255.90002632141113px) scale(0.9, 0.9) translate(-255.9000015258789px, -255.90002632141113px);transform: translate(255.9000015258789px, 255.90002632141113px) scale(0.9, 0.9) translate(-255.9000015258789px, -255.90002632141113px);}50%{-webkit-transform: translate(255.9000015258789px, 255.90002632141113px) scale(1, 1) translate(-255.9000015258789px, -255.90002632141113px);transform: translate(255.9000015258789px, 255.90002632141113px) scale(1, 1) translate(-255.9000015258789px, -255.90002632141113px);}100%{-webkit-transform: translate(255.9000015258789px, 255.90002632141113px) scale(0.9, 0.9) translate(-255.9000015258789px, -255.90002632141113px);transform: translate(255.9000015258789px, 255.90002632141113px) scale(0.9, 0.9) translate(-255.9000015258789px, -255.90002632141113px);}}@keyframes kf_el_73eWDj5yI4_an_yyIuUNbIU{0%{-webkit-transform: translate(255.9000015258789px, 255.90002632141113px) scale(0.9, 0.9) translate(-255.9000015258789px, -255.90002632141113px);transform: translate(255.9000015258789px, 255.90002632141113px) scale(0.9, 0.9) translate(-255.9000015258789px, -255.90002632141113px);}50%{-webkit-transform: translate(255.9000015258789px, 255.90002632141113px) scale(1, 1) translate(-255.9000015258789px, -255.90002632141113px);transform: translate(255.9000015258789px, 255.90002632141113px) scale(1, 1) translate(-255.9000015258789px, -255.90002632141113px);}100%{-webkit-transform: translate(255.9000015258789px, 255.90002632141113px) scale(0.9, 0.9) translate(-255.9000015258789px, -255.90002632141113px);transform: translate(255.9000015258789px, 255.90002632141113px) scale(0.9, 0.9) translate(-255.9000015258789px, -255.90002632141113px);}}#el_tjN9RboGo *{-webkit-animation-duration: 4s;animation-duration: 4s;-webkit-animation-iteration-count: infinite;animation-iteration-count: infinite;-webkit-animation-timing-function: cubic-bezier(0, 0, 1, 1);animation-timing-function: cubic-bezier(0, 0, 1, 1);}#el_73eWDj5yI4{fill: rgb(198, 62, 39);}#el_deWfgWBE7K{fill: #FFCC4D;}#el_GRbUU_vzHg{fill: #DD2E44;}#el_bkag0JYlta{fill: #E6AAAA;}#el_1H2F4sShZ8{fill: #FFCC4D;}#el_Ix-E0PocSI{fill: #E6AAAA;}#el_pKyb9BJvoY{fill: #272B2B;}#el_AxV1vZTNe9{fill: #272B2B;}#el_FJt0ukiXmc{fill: #FFE8B6;}#el_OoZTO3ONWi{fill: #272B2B;}#el_ZGZE8xBM0E{fill: #D99E82;}#el_W-0I-_19P7{fill: #D99E82;}#el_LV9LTxpPLO{fill: #D99E82;}#el_f0oCcvxXle6{fill: #D99E82;}#el_9BECFUcdFCs{fill: #D99E82;}#el_fWDQYpnSYe0{fill: #D99E82;}#el_73eWDj5yI4_an_yyIuUNbIU{-webkit-transform: translate(255.9000015258789px, 255.90002632141113px) scale(0.9, 0.9) translate(-255.9000015258789px, -255.90002632141113px);transform: translate(255.9000015258789px, 255.90002632141113px) scale(0.9, 0.9) translate(-255.9000015258789px, -255.90002632141113px);-webkit-animation-fill-mode: forwards;animation-fill-mode: forwards;-webkit-animation-name: kf_el_73eWDj5yI4_an_yyIuUNbIU;animation-name: kf_el_73eWDj5yI4_an_yyIuUNbIU;-webkit-animation-timing-function: cubic-bezier(0, 0, 1, 1);animation-timing-function: cubic-bezier(0, 0, 1, 1);}#el_OoZTO3ONWi_an_4KsqyYjI7{-webkit-animation-fill-mode: forwards;animation-fill-mode: forwards;-webkit-transform: translate(256.15000915527344px, 334.7124938964844px) translate(-256.15000915527344px, -334.7124938964844px) translate(0px, 0px);transform: translate(256.15000915527344px, 334.7124938964844px) translate(-256.15000915527344px, -334.7124938964844px) translate(0px, 0px);-webkit-animation-name: kf_el_OoZTO3ONWi_an_4KsqyYjI7;animation-name: kf_el_OoZTO3ONWi_an_4KsqyYjI7;-webkit-animation-timing-function: cubic-bezier(0, 0, 1, 1);animation-timing-function: cubic-bezier(0, 0, 1, 1);}#el_OoZTO3ONWi_an_tfXNW3o3T{-webkit-animation-fill-mode: forwards;animation-fill-mode: forwards;-webkit-transform: translate(256.15000915527344px, 334.7124938964844px) scale(1.1, 1.1) translate(-256.15000915527344px, -334.7124938964844px);transform: translate(256.15000915527344px, 334.7124938964844px) scale(1.1, 1.1) translate(-256.15000915527344px, -334.7124938964844px);-webkit-animation-name: kf_el_OoZTO3ONWi_an_tfXNW3o3T;animation-name: kf_el_OoZTO3ONWi_an_tfXNW3o3T;-webkit-animation-timing-function: cubic-bezier(0, 0, 1, 1);animation-timing-function: cubic-bezier(0, 0, 1, 1);}#el_pKyb9BJvoY_an_0QvMnLxfy{-webkit-transform: translate(192.14999389648438px, 270.1000061035156px) scale(1, 1) translate(-192.14999389648438px, -270.1000061035156px);transform: translate(192.14999389648438px, 270.1000061035156px) scale(1, 1) translate(-192.14999389648438px, -270.1000061035156px);}</style>
<g id="el_73eWDj5yI4_an_yyIuUNbIU" data-animator-group="true" data-animator-type="2"><path d="M425.25,28.5c-44.7-15.9-86.3,20.7-86.3,20.7s12.3-28.3,31.1-39.1c-31.7-6.8-69.2-10.1-114-10.1&#10;&#9;c-44.6,0-82.3,3.2-113.9,10c19.1,10.6,31.5,39.2,31.5,39.2s-42.9-37.8-88.3-20c-53.7,27-78.5,73.5-83.1,143.9&#10;&#9;c16.8-16.9,50.5-17.3,50.5-17.3s-54.2,32.8-48.7,80.4c5.5,41.9,19.8,84.9,40.9,124c-1.7-45.3,39.2-75.9,39.2-75.9&#10;&#9;s-35.4,84.8-8.3,124.3c27.5,36.2,61.3,66,99.2,84.1c-13.6-23.4-1.9-43.3-1.5-41.9c0.6,1.8,6.5,44.3,30.4,53.2&#10;&#9;c16.5,5,33.7,7.7,51.2,7.8h1.4c18.1-0.1,35.8-3,52.8-8.3c23-9.8,28.8-51,29.4-52.7c0.5-1.4,12,18.3-1.3,41.5&#10;&#9;c38.5-18.6,72.8-49.3,100.5-86.4c24.1-40.5-9.7-121.7-9.7-121.7s40.5,30.3,39.2,75.2c22.1-41.3,36.8-86.8,41.4-130.8&#10;&#9;c-0.5-43.5-49.2-73-49.2-73s32.9,0.3,49.9,16.7C505.05,101.9,479.85,55.3,425.25,28.5z M445.75,173.6c-4.4,17.8-22,28.2-42.6,33&#10;&#9;c-2.8,18.1-7.5,37.9-11.9,58.9c-4.4,21.1-8.2,38.7-11.4,53.4c4.6,6,4.7,14.8,4.8,27.4c0.8,65.9-34.3,84.6-67.3,86.1&#10;&#9;c-12.2,21.1-35,35.3-61.1,35.3s-48.9-14.2-61.1-35.3c-33-1.5-68.1-20.2-67.3-86.1c0.1-12.6,0.2-21.4,4.8-27.4&#10;&#9;c-3.2-14.6-7-32.3-11.4-53.4c-4.4-21-9.2-40.8-11.9-58.9c-20.6-4.7-38.1-15.2-42.5-33c-8.5-34,6.7-76.7,25.8-81.4&#10;&#9;c13-3.2,53.4,2.1,80.3,16.6c21.1-4.9,48.4-7.5,83.5-7.5l0,0l0,0c35.1,0,62.5,2.6,83.6,7.5c26.9-14.6,67.2-19.9,80.3-16.6&#10;&#9;C439.05,97,454.25,139.6,445.75,173.6z" id="el_73eWDj5yI4"/></g>
<path d="M309.85,432.5c-6.7-0.2-13.1-1.4-19.1-3.4c-8.6,9.3-20.9,15.1-34.6,15.1s-26-5.8-34.6-15.1&#10;&#9;c-6,2-12.5,3.2-19.2,3.4c-2.5,0.1-4.9,0.1-7.4-0.1c12.2,21.1,35,35.3,61.1,35.3s48.9-14.2,61.1-35.3&#10;&#9;C314.75,432.5,312.35,432.5,309.85,432.5z" id="el_deWfgWBE7K"/>
<path d="M256.15,444.2c13.7,0,26-5.8,34.6-15.1c-14.5-4.8-26.7-14.4-34.6-26.9c-7.9,12.6-20.1,22.1-34.6,26.9&#10;&#9;C230.15,438.4,242.45,444.2,256.15,444.2z" id="el_GRbUU_vzHg"/>
<path d="M145.75,117.7c-16.5-8.6-41.1-6.7-46.7-3.2c-7.3,4.5-17,43.5-4.6,63.3c3.8,6.1,8.1,10.5,12.8,13.2&#10;&#9;C104.75,158.8,112.05,133.2,145.75,117.7z" id="el_bkag0JYlta"/>
<path d="M419.95,92.2c-13.1-3.2-53.4,2.1-80.3,16.6c-21.1-4.9-48.4-7.5-83.6-7.5l0,0l0,0&#10;&#9;c-35.1,0-62.4,2.6-83.5,7.5c-26.9-14.6-67.2-19.9-80.3-16.6c-19.1,4.8-34.2,47.4-25.8,81.4c4.4,17.8,22,28.2,42.5,33&#10;&#9;c2.8,18.1,7.5,37.9,11.9,58.9c4.4,21.1,8.2,38.8,11.4,53.4c7.2-9.4,25.5-12.2,72.5-12.7c0.5-0.8,1.4-1.4,2.6-1.7&#10;&#9;c16.2-3.3,81-3.3,97.2,0c1.2,0.2,2.1,0.8,2.6,1.7c47,0.5,65.2,3.3,72.4,12.7c3.2-14.6,7-32.3,11.4-53.4c4.4-21,9.2-40.8,11.9-58.9&#10;&#9;c20.6-4.7,38.2-15.2,42.6-33C454.25,139.6,439.05,97,419.95,92.2z M94.45,177.8c-12.4-19.8-2.6-58.7,4.6-63.3&#10;&#9;c5.6-3.5,30.2-5.4,46.7,3.2c-33.6,15.5-41,41.1-38.4,73.3C102.55,188.3,98.25,183.9,94.45,177.8z M213.45,248.9&#10;&#9;c0,0,0,21.3-21.3,21.3c-21.3,0-21.3-21.3-21.3-21.3v-21.3c0,0,0-21.3,21.3-21.3c21.3,0,21.3,21.3,21.3,21.3V248.9z M341.45,248.9&#10;&#9;c0,0,0,21.3-21.3,21.3s-21.3-21.3-21.3-21.3v-21.3c0,0,0-21.3,21.3-21.3c21.3,0,21.3,21.3,21.3,21.3V248.9z M417.85,177.8&#10;&#9;c-3.8,6.2-8.2,10.5-12.9,13.2c2.5-32.2-4.8-57.8-38.4-73.3c16.5-8.6,41.1-6.7,46.7-3.2C420.55,119,430.25,158,417.85,177.8z" id="el_1H2F4sShZ8"/>
<path d="M413.25,114.5c-5.6-3.5-30.2-5.4-46.7,3.2c33.6,15.5,40.9,41.1,38.4,73.3c4.7-2.7,9-7,12.9-13.2&#10;&#9;C430.25,158,420.55,119,413.25,114.5z" id="el_Ix-E0PocSI"/>
<g id="el_1kMvWHbTST">
	<path d="M192.15,206.2c-21.3,0-21.3,21.3-21.3,21.3v21.3c0,0,0,21.3,21.3,21.3c21.3,0,21.3-21.3,21.3-21.3&#10;&#9;&#9;v-21.3C213.45,227.6,213.45,206.2,192.15,206.2z" id="el_pKyb9BJvoY"/>
	<path d="M320.15,206.2c-21.3,0-21.3,21.3-21.3,21.3v21.3c0,0,0,21.3,21.3,21.3c21.3,0,21.3-21.3,21.3-21.3&#10;&#9;&#9;v-21.3C341.45,227.6,341.45,206.2,320.15,206.2z" id="el_AxV1vZTNe9"/>
</g>
<path d="M307.35,306.2c6.5,10.3-36.2,61.4-51.2,61.4s-57.7-51.1-51.2-61.4c-47,0.5-65.3,3.3-72.5,12.7&#10;&#9;c-4.6,6-4.6,14.8-4.8,27.4c-0.8,65.9,34.3,84.6,67.3,86.1c2.5,0.1,5,0.1,7.4,0.1c6.7-0.2,13.1-1.4,19.2-3.4&#10;&#9;c14.5-4.8,26.7-14.4,34.6-26.9c7.9,12.6,20.1,22.1,34.6,26.9c6,2,12.5,3.2,19.1,3.4c2.5,0.1,4.9,0.1,7.4-0.1&#10;&#9;c33-1.5,68.1-20.2,67.3-86.1c-0.1-12.6-0.2-21.4-4.8-27.4C372.65,309.5,354.35,306.7,307.35,306.2z M348.55,341.3&#10;&#9;c3.9,0,7.1,3.2,7.1,7.1s-3.2,7.1-7.1,7.1s-7.1-3.2-7.1-7.1S344.65,341.3,348.55,341.3z M163.75,341.3c3.9,0,7.1,3.2,7.1,7.1&#10;&#9;s-3.2,7.1-7.1,7.1s-7.1-3.2-7.1-7.1S159.75,341.3,163.75,341.3z M142.35,376.9c0-3.9,3.2-7.1,7.1-7.1s7.1,3.2,7.1,7.1&#10;&#9;s-3.2,7.1-7.1,7.1S142.35,380.8,142.35,376.9z M177.95,398.2c-3.9,0-7.1-3.2-7.1-7.1c0-3.9,3.2-7.1,7.1-7.1s7.1,3.2,7.1,7.1&#10;&#9;S181.85,398.2,177.95,398.2z M334.35,398.2c-3.9,0-7.1-3.2-7.1-7.1c0-3.9,3.2-7.1,7.1-7.1s7.1,3.2,7.1,7.1&#10;&#9;C341.45,395,338.25,398.2,334.35,398.2z M369.95,376.9c0,3.9-3.2,7.1-7.1,7.1s-7.1-3.2-7.1-7.1c0-3.9,3.2-7.1,7.1-7.1&#10;&#9;C366.75,369.8,369.95,373,369.95,376.9z" id="el_FJt0ukiXmc"/>
<g id="el_OoZTO3ONWi_an_4KsqyYjI7" data-animator-group="true" data-animator-type="0"><g id="el_OoZTO3ONWi_an_tfXNW3o3T" data-animator-group="true" data-animator-type="2"><path d="M256.15,367.5c15,0,57.7-51.1,51.2-61.4c-0.5-0.8-1.4-1.4-2.6-1.7c-16.2-3.3-81-3.3-97.2,0&#10;&#9;c-1.2,0.2-2.1,0.8-2.6,1.7C198.45,316.5,241.15,367.5,256.15,367.5z" id="el_OoZTO3ONWi"/></g></g>
<g id="el_b4YELyplGA">
	<circle cx="163.75" cy="348.4" r="7.1" id="el_ZGZE8xBM0E"/>
	<circle cx="149.45" cy="376.9" r="7.1" id="el_W-0I-_19P7"/>
	<circle cx="177.95" cy="391.1" r="7.1" id="el_LV9LTxpPLO"/>
	<circle cx="348.55" cy="348.4" r="7.1" id="el_f0oCcvxXle6"/>
	<circle cx="362.85" cy="376.9" r="7.1" id="el_9BECFUcdFCs"/>
	<circle cx="334.35" cy="391.1" r="7.1" id="el_fWDQYpnSYe0"/>
</g>
<g id="el_lw__nA6c6JA">
</g>
<g id="el_5v5itKpDo1f">
</g>
<g id="el_73iKos2ckX1">
</g>
<g id="el_Mx45YhRaIdo">
</g>
<g id="el_Pl8ZO_Vj_wB">
</g>
<g id="el_ywjVOjv1PWM">
</g>
<g id="el_TPtk10d4qWj">
</g>
<g id="el_0MKyyWmTjdB">
</g>
<g id="el_Yv-r5RlJwBo">
</g>
<g id="el_lsOkkb-4uO1">
</g>
<g id="el_lI0vdHid9Hg">
</g>
<g id="el_49PtI4QCzhI">
</g>
<g id="el_EFCar_hQIPT">
</g>
<g id="el_bHvF_t2nV18">
</g>
<g id="el_Fzgbt8ibcmw">
</g>
</svg>